<svg version="1.1" xmlns="http://www.w3.org/2000/svg" xmlns:xlink="http://www.w3.org/1999/xlink" width="444.287109375" height="244"><defs/><g><text fill="#eeeeee" stroke="none" font-family="Arial" font-size="24px" font-style="normal" font-weight="normal" text-decoration="none" x="0" y="0">UNREGISTERED</text><text fill="#eeeeee" stroke="none" font-family="Arial" font-size="24px" font-style="normal" font-weight="normal" text-decoration="none" x="0" y="30">UNREGISTERED</text><text fill="#eeeeee" stroke="none" font-family="Arial" font-size="24px" font-style="normal" font-weight="normal" text-decoration="none" x="0" y="60">UNREGISTERED</text><text fill="#eeeeee" stroke="none" font-family="Arial" font-size="24px" font-style="normal" font-weight="normal" text-decoration="none" x="0" y="90">UNREGISTERED</text><text fill="#eeeeee" stroke="none" font-family="Arial" font-size="24px" font-style="normal" font-weight="normal" text-decoration="none" x="0" y="120">UNREGISTERED</text><text fill="#eeeeee" stroke="none" font-family="Arial" font-size="24px" font-style="normal" font-weight="normal" text-decoration="none" x="0" y="150">UNREGISTERED</text><text fill="#eeeeee" stroke="none" font-family="Arial" font-size="24px" font-style="normal" font-weight="normal" text-decoration="none" x="0" y="180">UNREGISTERED</text><text fill="#eeeeee" stroke="none" font-family="Arial" font-size="24px" font-style="normal" font-weight="normal" text-decoration="none" x="0" y="210">UNREGISTERED</text><text fill="#eeeeee" stroke="none" font-family="Arial" font-size="24px" font-style="normal" font-weight="normal" text-decoration="none" x="0" y="240">UNREGISTERED</text><text fill="#eeeeee" stroke="none" font-family="Arial" font-size="24px" font-style="normal" font-weight="normal" text-decoration="none" x="200" y="0">UNREGISTERED</text><text fill="#eeeeee" stroke="none" font-family="Arial" font-size="24px" font-style="normal" font-weight="normal" text-decoration="none" x="200" y="30">UNREGISTERED</text><text fill="#eeeeee" stroke="none" font-family="Arial" font-size="24px" font-style="normal" font-weight="normal" text-decoration="none" x="200" y="60">UNREGISTERED</text><text fill="#eeeeee" stroke="none" font-family="Arial" font-size="24px" font-style="normal" font-weight="normal" text-decoration="none" x="200" y="90">UNREGISTERED</text><text fill="#eeeeee" stroke="none" font-family="Arial" font-size="24px" font-style="normal" font-weight="normal" text-decoration="none" x="200" y="120">UNREGISTERED</text><text fill="#eeeeee" stroke="none" font-family="Arial" font-size="24px" font-style="normal" font-weight="normal" text-decoration="none" x="200" y="150">UNREGISTERED</text><text fill="#eeeeee" stroke="none" font-family="Arial" font-size="24px" font-style="normal" font-weight="normal" text-decoration="none" x="200" y="180">UNREGISTERED</text><text fill="#eeeeee" stroke="none" font-family="Arial" font-size="24px" font-style="normal" font-weight="normal" text-decoration="none" x="200" y="210">UNREGISTERED</text><text fill="#eeeeee" stroke="none" font-family="Arial" font-size="24px" font-style="normal" font-weight="normal" text-decoration="none" x="200" y="240">UNREGISTERED</text><text fill="#eeeeee" stroke="none" font-family="Arial" font-size="24px" font-style="normal" font-weight="normal" text-decoration="none" x="400" y="0">UNREGISTERED</text><text fill="#eeeeee" stroke="none" font-family="Arial" font-size="24px" font-style="normal" font-weight="normal" text-decoration="none" x="400" y="30">UNREGISTERED</text><text fill="#eeeeee" stroke="none" font-family="Arial" font-size="24px" font-style="normal" font-weight="normal" text-decoration="none" x="400" y="60">UNREGISTERED</text><text fill="#eeeeee" stroke="none" font-family="Arial" font-size="24px" font-style="normal" font-weight="normal" text-decoration="none" x="400" y="90">UNREGISTERED</text><text fill="#eeeeee" stroke="none" font-family="Arial" font-size="24px" font-style="normal" font-weight="normal" text-decoration="none" x="400" y="120">UNREGISTERED</text><text fill="#eeeeee" stroke="none" font-family="Arial" font-size="24px" font-style="normal" font-weight="normal" text-decoration="none" x="400" y="150">UNREGISTERED</text><text fill="#eeeeee" stroke="none" font-family="Arial" font-size="24px" font-style="normal" font-weight="normal" text-decoration="none" x="400" y="180">UNREGISTERED</text><text fill="#eeeeee" stroke="none" font-family="Arial" font-size="24px" font-style="normal" font-weight="normal" text-decoration="none" x="400" y="210">UNREGISTERED</text><text fill="#eeeeee" stroke="none" font-family="Arial" font-size="24px" font-style="normal" font-weight="normal" text-decoration="none" x="400" y="240">UNREGISTERED</text><g transform="translate(-3,3) scale(1,1)"><path fill="#C0C0C0" stroke="none" d="M 42 48.5 C 42 43.2532944 46.2532944 39 51.5 39 C 56.7467056 39 61 43.2532944 61 48.5 C 61 53.7467056 56.7467056 58 51.5 58 C 46.2532944 58 42 53.7467056 42 48.5 Z" opacity="0.2"/></g><g transform="translate(-3,3) scale(1,1)"><path fill="#000000" stroke="none" d="M 35 41.5 C 35 36.2532944 39.2532944 32 44.5 32 C 49.7467056 32 54 36.2532944 54 41.5 C 54 46.7467056 49.7467056 51 44.5 51 C 39.2532944 51 35 46.7467056 35 41.5 Z"/></g><g transform="translate(-3,3) scale(1,1)"><path fill="#C0C0C0" stroke="none" d="M 137 31 L 216.30810546875 31 Q 226.30810546875 31 226.30810546875 41 L 226.30810546875 60 Q 226.30810546875 70 216.30810546875 70 L 137 70 Q 127 70 127 60 L 127 41 Q 127 31 137 31 Z" opacity="0.2"/></g><g transform="translate(-3,3) scale(1,1)"><path fill="#ffffff" stroke="none" d="M 130 24 L 209.30810546875 24 Q 219.30810546875 24 219.30810546875 34 L 219.30810546875 53 Q 219.30810546875 63 209.30810546875 63 L 130 63 Q 120 63 120 53 L 120 34 Q 120 24 130 24 Z"/></g><g transform="translate(-3,3) scale(1,1)"><path fill="none" stroke="#000000" d="M 130 24 L 209.30810546875 24 Q 219.30810546875 24 219.30810546875 34 L 219.30810546875 53 Q 219.30810546875 63 209.30810546875 63 L 130 63 Q 120 63 120 53 L 120 34 Q 120 24 130 24 Z" stroke-miterlimit="10"/></g><g transform="translate(-3,3) scale(1,1)"><g><path fill="none" stroke="none"/><text fill="#000000" stroke="none" font-family="Arial" font-size="13px" font-style="normal" font-weight="bold" text-decoration="none" x="124.5" y="41.5">sign_in_coach</text></g></g><g transform="translate(-3,3) scale(1,1)"><path fill="none" stroke="#000000" d="M 54 40 L 120 40" stroke-miterlimit="10"/></g><g transform="translate(-3,3) scale(1,1)"><path fill="none" stroke="#000000" d="M 109.83732514237585 44.20951775601599 L 120 40 L 109.83732514237585 35.790482243984016" stroke-miterlimit="10"/></g><g transform="translate(-3,3) scale(1,1)"><g><path fill="none" stroke="none"/><text fill="#000000" stroke="none" font-family="Arial" font-size="13px" font-style="normal" font-weight="normal" text-decoration="none" x="12.5" y="19.5">Coach Sign In button clicked</text></g></g><g transform="translate(-3,3) scale(1,1)"><path fill="#C0C0C0" stroke="none" d="M 321 31 L 434.287109375 31 Q 444.287109375 31 444.287109375 41 L 444.287109375 60 Q 444.287109375 70 434.287109375 70 L 321 70 Q 311 70 311 60 L 311 41 Q 311 31 321 31 Z" opacity="0.2"/></g><g transform="translate(-3,3) scale(1,1)"><path fill="#ffffff" stroke="none" d="M 314 24 L 427.287109375 24 Q 437.287109375 24 437.287109375 34 L 437.287109375 53 Q 437.287109375 63 427.287109375 63 L 314 63 Q 304 63 304 53 L 304 34 Q 304 24 314 24 Z"/></g><g transform="translate(-3,3) scale(1,1)"><path fill="none" stroke="#000000" d="M 314 24 L 427.287109375 24 Q 437.287109375 24 437.287109375 34 L 437.287109375 53 Q 437.287109375 63 427.287109375 63 L 314 63 Q 304 63 304 53 L 304 34 Q 304 24 314 24 Z" stroke-miterlimit="10"/></g><g transform="translate(-3,3) scale(1,1)"><g><path fill="none" stroke="none"/><text fill="#000000" stroke="none" font-family="Arial" font-size="13px" font-style="normal" font-weight="bold" text-decoration="none" x="308.5" y="41.5">validate_credentials</text></g></g><g transform="translate(-3,3) scale(1,1)"><path fill="none" stroke="#000000" d="M 219 43 L 304 43" stroke-miterlimit="10"/></g><g transform="translate(-3,3) scale(1,1)"><path fill="none" stroke="#000000" d="M 293.83732514237585 47.20951775601599 L 304 43 L 293.83732514237585 38.790482243984016" stroke-miterlimit="10"/></g><g transform="translate(-3,3) scale(1,1)"><g><path fill="none" stroke="none"/><text fill="#000000" stroke="none" font-family="Arial" font-size="13px" font-style="normal" font-weight="normal" text-decoration="none" x="216.5" y="17.5">Form submited</text></g></g><g transform="translate(-3,3) scale(1,1)"><path fill="#C0C0C0" stroke="none" d="M 311 112.5 L 322.5 103 L 333 112.5 L 322.5 121 L 311 112.5" opacity="0.2"/></g><g transform="translate(-3,3) scale(1,1)"><path fill="#ffffff" stroke="none" d="M 304 105 L 315 96 L 326 105 L 315 114 L 304 105"/></g><g transform="translate(-3,3) scale(1,1)"><path fill="none" stroke="#000000" d="M 304 105 L 315 96 L 326 105 L 315 114 L 304 105 L 304 105" stroke-miterlimit="10"/></g><g transform="translate(-3,3) scale(1,1)"><path fill="none" stroke="#000000" d="M 304 107 L 213 107 L 213 63" stroke-miterlimit="10"/></g><g transform="translate(-3,3) scale(1,1)"><path fill="none" stroke="#000000" d="M 217.209517756016 73.16267485762415 L 213 63 L 208.790482243984 73.16267485762415" stroke-miterlimit="10"/></g><g transform="translate(-3,3) scale(1,1)"><g><path fill="none" stroke="none"/><text fill="#000000" stroke="none" font-family="Arial" font-size="13px" font-style="normal" font-weight="normal" text-decoration="none" x="222.5" y="121.5">Redirect</text></g></g><g transform="translate(-3,3) scale(1,1)"><path fill="none" stroke="#000000" d="M 354 63 L 354 104 L 326 104" stroke-miterlimit="10"/></g><g transform="translate(-3,3) scale(1,1)"><path fill="none" stroke="#000000" d="M 336.16267485762415 99.79048224398402 L 326 104 L 336.16267485762415 108.20951775601598" stroke-miterlimit="10"/></g><g transform="translate(-3,3) scale(1,1)"><g><path fill="none" stroke="none"/><text fill="#000000" stroke="none" font-family="Arial" font-size="13px" font-style="normal" font-weight="normal" text-decoration="none" x="237.5" y="81.5">Valid Credentials ?</text></g></g><g transform="translate(-3,3) scale(1,1)"><path fill="#C0C0C0" stroke="none" d="M 281 199 L 392.09716796875 199 Q 402.09716796875 199 402.09716796875 209 L 402.09716796875 228 Q 402.09716796875 238 392.09716796875 238 L 281 238 Q 271 238 271 228 L 271 209 Q 271 199 281 199 Z" opacity="0.2"/></g><g transform="translate(-3,3) scale(1,1)"><path fill="#ffffff" stroke="none" d="M 274 192 L 385.09716796875 192 Q 395.09716796875 192 395.09716796875 202 L 395.09716796875 221 Q 395.09716796875 231 385.09716796875 231 L 274 231 Q 264 231 264 221 L 264 202 Q 264 192 274 192 Z"/></g><g transform="translate(-3,3) scale(1,1)"><path fill="none" stroke="#000000" d="M 274 192 L 385.09716796875 192 Q 395.09716796875 192 395.09716796875 202 L 395.09716796875 221 Q 395.09716796875 231 385.09716796875 231 L 274 231 Q 264 231 264 221 L 264 202 Q 264 192 274 192 Z" stroke-miterlimit="10"/></g><g transform="translate(-3,3) scale(1,1)"><g><path fill="none" stroke="none"/><text fill="#000000" stroke="none" font-family="Arial" font-size="13px" font-style="normal" font-weight="bold" text-decoration="none" x="268.5" y="209.5">coach_profile_page</text></g></g><g transform="translate(-3,3) scale(1,1)"><path fill="none" stroke="#000000" d="M 312 114 L 312 192" stroke-miterlimit="10"/></g><g transform="translate(-3,3) scale(1,1)"><path fill="none" stroke="#000000" d="M 307.790482243984 181.83732514237585 L 312 192 L 316.209517756016 181.83732514237585" stroke-miterlimit="10"/></g><g transform="translate(-3,3) scale(1,1)"><g><path fill="none" stroke="none"/><text fill="#000000" stroke="none" font-family="Arial" font-size="13px" font-style="normal" font-weight="normal" text-decoration="none" x="316.5" y="154.5">Redirect</text></g></g></g></svg>