<svg version="1.1" xmlns="http://www.w3.org/2000/svg" xmlns:xlink="http://www.w3.org/1999/xlink" width="816" height="381"><defs/><g><text fill="#eeeeee" stroke="none" font-family="Arial" font-size="24px" font-style="normal" font-weight="normal" text-decoration="none" x="0" y="0">UNREGISTERED</text><text fill="#eeeeee" stroke="none" font-family="Arial" font-size="24px" font-style="normal" font-weight="normal" text-decoration="none" x="0" y="30">UNREGISTERED</text><text fill="#eeeeee" stroke="none" font-family="Arial" font-size="24px" font-style="normal" font-weight="normal" text-decoration="none" x="0" y="60">UNREGISTERED</text><text fill="#eeeeee" stroke="none" font-family="Arial" font-size="24px" font-style="normal" font-weight="normal" text-decoration="none" x="0" y="90">UNREGISTERED</text><text fill="#eeeeee" stroke="none" font-family="Arial" font-size="24px" font-style="normal" font-weight="normal" text-decoration="none" x="0" y="120">UNREGISTERED</text><text fill="#eeeeee" stroke="none" font-family="Arial" font-size="24px" font-style="normal" font-weight="normal" text-decoration="none" x="0" y="150">UNREGISTERED</text><text fill="#eeeeee" stroke="none" font-family="Arial" font-size="24px" font-style="normal" font-weight="normal" text-decoration="none" x="0" y="180">UNREGISTERED</text><text fill="#eeeeee" stroke="none" font-family="Arial" font-size="24px" font-style="normal" font-weight="normal" text-decoration="none" x="0" y="210">UNREGISTERED</text><text fill="#eeeeee" stroke="none" font-family="Arial" font-size="24px" font-style="normal" font-weight="normal" text-decoration="none" x="0" y="240">UNREGISTERED</text><text fill="#eeeeee" stroke="none" font-family="Arial" font-size="24px" font-style="normal" font-weight="normal" text-decoration="none" x="0" y="270">UNREGISTERED</text><text fill="#eeeeee" stroke="none" font-family="Arial" font-size="24px" font-style="normal" font-weight="normal" text-decoration="none" x="0" y="300">UNREGISTERED</text><text fill="#eeeeee" stroke="none" font-family="Arial" font-size="24px" font-style="normal" font-weight="normal" text-decoration="none" x="0" y="330">UNREGISTERED</text><text fill="#eeeeee" stroke="none" font-family="Arial" font-size="24px" font-style="normal" font-weight="normal" text-decoration="none" x="0" y="360">UNREGISTERED</text><text fill="#eeeeee" stroke="none" font-family="Arial" font-size="24px" font-style="normal" font-weight="normal" text-decoration="none" x="200" y="0">UNREGISTERED</text><text fill="#eeeeee" stroke="none" font-family="Arial" font-size="24px" font-style="normal" font-weight="normal" text-decoration="none" x="200" y="30">UNREGISTERED</text><text fill="#eeeeee" stroke="none" font-family="Arial" font-size="24px" font-style="normal" font-weight="normal" text-decoration="none" x="200" y="60">UNREGISTERED</text><text fill="#eeeeee" stroke="none" font-family="Arial" font-size="24px" font-style="normal" font-weight="normal" text-decoration="none" x="200" y="90">UNREGISTERED</text><text fill="#eeeeee" stroke="none" font-family="Arial" font-size="24px" font-style="normal" font-weight="normal" text-decoration="none" x="200" y="120">UNREGISTERED</text><text fill="#eeeeee" stroke="none" font-family="Arial" font-size="24px" font-style="normal" font-weight="normal" text-decoration="none" x="200" y="150">UNREGISTERED</text><text fill="#eeeeee" stroke="none" font-family="Arial" font-size="24px" font-style="normal" font-weight="normal" text-decoration="none" x="200" y="180">UNREGISTERED</text><text fill="#eeeeee" stroke="none" font-family="Arial" font-size="24px" font-style="normal" font-weight="normal" text-decoration="none" x="200" y="210">UNREGISTERED</text><text fill="#eeeeee" stroke="none" font-family="Arial" font-size="24px" font-style="normal" font-weight="normal" text-decoration="none" x="200" y="240">UNREGISTERED</text><text fill="#eeeeee" stroke="none" font-family="Arial" font-size="24px" font-style="normal" font-weight="normal" text-decoration="none" x="200" y="270">UNREGISTERED</text><text fill="#eeeeee" stroke="none" font-family="Arial" font-size="24px" font-style="normal" font-weight="normal" text-decoration="none" x="200" y="300">UNREGISTERED</text><text fill="#eeeeee" stroke="none" font-family="Arial" font-size="24px" font-style="normal" font-weight="normal" text-decoration="none" x="200" y="330">UNREGISTERED</text><text fill="#eeeeee" stroke="none" font-family="Arial" font-size="24px" font-style="normal" font-weight="normal" text-decoration="none" x="200" y="360">UNREGISTERED</text><text fill="#eeeeee" stroke="none" font-family="Arial" font-size="24px" font-style="normal" font-weight="normal" text-decoration="none" x="400" y="0">UNREGISTERED</text><text fill="#eeeeee" stroke="none" font-family="Arial" font-size="24px" font-style="normal" font-weight="normal" text-decoration="none" x="400" y="30">UNREGISTERED</text><text fill="#eeeeee" stroke="none" font-family="Arial" font-size="24px" font-style="normal" font-weight="normal" text-decoration="none" x="400" y="60">UNREGISTERED</text><text fill="#eeeeee" stroke="none" font-family="Arial" font-size="24px" font-style="normal" font-weight="normal" text-decoration="none" x="400" y="90">UNREGISTERED</text><text fill="#eeeeee" stroke="none" font-family="Arial" font-size="24px" font-style="normal" font-weight="normal" text-decoration="none" x="400" y="120">UNREGISTERED</text><text fill="#eeeeee" stroke="none" font-family="Arial" font-size="24px" font-style="normal" font-weight="normal" text-decoration="none" x="400" y="150">UNREGISTERED</text><text fill="#eeeeee" stroke="none" font-family="Arial" font-size="24px" font-style="normal" font-weight="normal" text-decoration="none" x="400" y="180">UNREGISTERED</text><text fill="#eeeeee" stroke="none" font-family="Arial" font-size="24px" font-style="normal" font-weight="normal" text-decoration="none" x="400" y="210">UNREGISTERED</text><text fill="#eeeeee" stroke="none" font-family="Arial" font-size="24px" font-style="normal" font-weight="normal" text-decoration="none" x="400" y="240">UNREGISTERED</text><text fill="#eeeeee" stroke="none" font-family="Arial" font-size="24px" font-style="normal" font-weight="normal" text-decoration="none" x="400" y="270">UNREGISTERED</text><text fill="#eeeeee" stroke="none" font-family="Arial" font-size="24px" font-style="normal" font-weight="normal" text-decoration="none" x="400" y="300">UNREGISTERED</text><text fill="#eeeeee" stroke="none" font-family="Arial" font-size="24px" font-style="normal" font-weight="normal" text-decoration="none" x="400" y="330">UNREGISTERED</text><text fill="#eeeeee" stroke="none" font-family="Arial" font-size="24px" font-style="normal" font-weight="normal" text-decoration="none" x="400" y="360">UNREGISTERED</text><text fill="#eeeeee" stroke="none" font-family="Arial" font-size="24px" font-style="normal" font-weight="normal" text-decoration="none" x="600" y="0">UNREGISTERED</text><text fill="#eeeeee" stroke="none" font-family="Arial" font-size="24px" font-style="normal" font-weight="normal" text-decoration="none" x="600" y="30">UNREGISTERED</text><text fill="#eeeeee" stroke="none" font-family="Arial" font-size="24px" font-style="normal" font-weight="normal" text-decoration="none" x="600" y="60">UNREGISTERED</text><text fill="#eeeeee" stroke="none" font-family="Arial" font-size="24px" font-style="normal" font-weight="normal" text-decoration="none" x="600" y="90">UNREGISTERED</text><text fill="#eeeeee" stroke="none" font-family="Arial" font-size="24px" font-style="normal" font-weight="normal" text-decoration="none" x="600" y="120">UNREGISTERED</text><text fill="#eeeeee" stroke="none" font-family="Arial" font-size="24px" font-style="normal" font-weight="normal" text-decoration="none" x="600" y="150">UNREGISTERED</text><text fill="#eeeeee" stroke="none" font-family="Arial" font-size="24px" font-style="normal" font-weight="normal" text-decoration="none" x="600" y="180">UNREGISTERED</text><text fill="#eeeeee" stroke="none" font-family="Arial" font-size="24px" font-style="normal" font-weight="normal" text-decoration="none" x="600" y="210">UNREGISTERED</text><text fill="#eeeeee" stroke="none" font-family="Arial" font-size="24px" font-style="normal" font-weight="normal" text-decoration="none" x="600" y="240">UNREGISTERED</text><text fill="#eeeeee" stroke="none" font-family="Arial" font-size="24px" font-style="normal" font-weight="normal" text-decoration="none" x="600" y="270">UNREGISTERED</text><text fill="#eeeeee" stroke="none" font-family="Arial" font-size="24px" font-style="normal" font-weight="normal" text-decoration="none" x="600" y="300">UNREGISTERED</text><text fill="#eeeeee" stroke="none" font-family="Arial" font-size="24px" font-style="normal" font-weight="normal" text-decoration="none" x="600" y="330">UNREGISTERED</text><text fill="#eeeeee" stroke="none" font-family="Arial" font-size="24px" font-style="normal" font-weight="normal" text-decoration="none" x="600" y="360">UNREGISTERED</text><text fill="#eeeeee" stroke="none" font-family="Arial" font-size="24px" font-style="normal" font-weight="normal" text-decoration="none" x="800" y="0">UNREGISTERED</text><text fill="#eeeeee" stroke="none" font-family="Arial" font-size="24px" font-style="normal" font-weight="normal" text-decoration="none" x="800" y="30">UNREGISTERED</text><text fill="#eeeeee" stroke="none" font-family="Arial" font-size="24px" font-style="normal" font-weight="normal" text-decoration="none" x="800" y="60">UNREGISTERED</text><text fill="#eeeeee" stroke="none" font-family="Arial" font-size="24px" font-style="normal" font-weight="normal" text-decoration="none" x="800" y="90">UNREGISTERED</text><text fill="#eeeeee" stroke="none" font-family="Arial" font-size="24px" font-style="normal" font-weight="normal" text-decoration="none" x="800" y="120">UNREGISTERED</text><text fill="#eeeeee" stroke="none" font-family="Arial" font-size="24px" font-style="normal" font-weight="normal" text-decoration="none" x="800" y="150">UNREGISTERED</text><text fill="#eeeeee" stroke="none" font-family="Arial" font-size="24px" font-style="normal" font-weight="normal" text-decoration="none" x="800" y="180">UNREGISTERED</text><text fill="#eeeeee" stroke="none" font-family="Arial" font-size="24px" font-style="normal" font-weight="normal" text-decoration="none" x="800" y="210">UNREGISTERED</text><text fill="#eeeeee" stroke="none" font-family="Arial" font-size="24px" font-style="normal" font-weight="normal" text-decoration="none" x="800" y="240">UNREGISTERED</text><text fill="#eeeeee" stroke="none" font-family="Arial" font-size="24px" font-style="normal" font-weight="normal" text-decoration="none" x="800" y="270">UNREGISTERED</text><text fill="#eeeeee" stroke="none" font-family="Arial" font-size="24px" font-style="normal" font-weight="normal" text-decoration="none" x="800" y="300">UNREGISTERED</text><text fill="#eeeeee" stroke="none" font-family="Arial" font-size="24px" font-style="normal" font-weight="normal" text-decoration="none" x="800" y="330">UNREGISTERED</text><text fill="#eeeeee" stroke="none" font-family="Arial" font-size="24px" font-style="normal" font-weight="normal" text-decoration="none" x="800" y="360">UNREGISTERED</text><g transform="translate(3,-14) scale(1,1)"><path fill="#C0C0C0" stroke="none" d="M 225 47 L 286.92822265625 47 Q 296.92822265625 47 296.92822265625 57 L 296.92822265625 76 Q 296.92822265625 86 286.92822265625 86 L 225 86 Q 215 86 215 76 L 215 57 Q 215 47 225 47 Z" opacity="0.2"/></g><g transform="translate(3,-14) scale(1,1)"><path fill="#ffffff" stroke="none" d="M 218 40 L 279.92822265625 40 Q 289.92822265625 40 289.92822265625 50 L 289.92822265625 69 Q 289.92822265625 79 279.92822265625 79 L 218 79 Q 208 79 208 69 L 208 50 Q 208 40 218 40 Z"/></g><g transform="translate(3,-14) scale(1,1)"><path fill="none" stroke="#000000" d="M 218 40 L 279.92822265625 40 Q 289.92822265625 40 289.92822265625 50 L 289.92822265625 69 Q 289.92822265625 79 279.92822265625 79 L 218 79 Q 208 79 208 69 L 208 50 Q 208 40 218 40 Z" stroke-miterlimit="10"/></g><g transform="translate(3,-14) scale(1,1)"><g><path fill="none" stroke="none"/><text fill="#000000" stroke="none" font-family="Arial" font-size="13px" font-style="normal" font-weight="bold" text-decoration="none" x="213.94091796875" y="57.5">logged_out</text></g></g><g transform="translate(3,-14) scale(1,1)"><path fill="#C0C0C0" stroke="none" d="M 103 64.5 C 103 59.2532944 107.2532944 55 112.5 55 C 117.7467056 55 122 59.2532944 122 64.5 C 122 69.7467056 117.7467056 74 112.5 74 C 107.2532944 74 103 69.7467056 103 64.5 Z" opacity="0.2"/></g><g transform="translate(3,-14) scale(1,1)"><path fill="#000000" stroke="none" d="M 96 57.5 C 96 52.2532944 100.2532944 48 105.5 48 C 110.7467056 48 115 52.2532944 115 57.5 C 115 62.7467056 110.7467056 67 105.5 67 C 100.2532944 67 96 62.7467056 96 57.5 Z"/></g><g transform="translate(3,-14) scale(1,1)"><path fill="#C0C0C0" stroke="none" d="M 385 47 L 446.24267578125 47 Q 456.24267578125 47 456.24267578125 57 L 456.24267578125 76 Q 456.24267578125 86 446.24267578125 86 L 385 86 Q 375 86 375 76 L 375 57 Q 375 47 385 47 Z" opacity="0.2"/></g><g transform="translate(3,-14) scale(1,1)"><path fill="#ffffff" stroke="none" d="M 378 40 L 439.24267578125 40 Q 449.24267578125 40 449.24267578125 50 L 449.24267578125 69 Q 449.24267578125 79 439.24267578125 79 L 378 79 Q 368 79 368 69 L 368 50 Q 368 40 378 40 Z"/></g><g transform="translate(3,-14) scale(1,1)"><path fill="none" stroke="#000000" d="M 378 40 L 439.24267578125 40 Q 449.24267578125 40 449.24267578125 50 L 449.24267578125 69 Q 449.24267578125 79 439.24267578125 79 L 378 79 Q 368 79 368 69 L 368 50 Q 368 40 378 40 Z" stroke-miterlimit="10"/></g><g transform="translate(3,-14) scale(1,1)"><g><path fill="none" stroke="none"/><text fill="#000000" stroke="none" font-family="Arial" font-size="13px" font-style="normal" font-weight="bold" text-decoration="none" x="372.5" y="57.5">home_page</text></g></g><g transform="translate(3,-14) scale(1,1)"><path fill="#C0C0C0" stroke="none" d="M 681 95 L 727.78271484375 95 Q 737.78271484375 95 737.78271484375 105 L 737.78271484375 124 Q 737.78271484375 134 727.78271484375 134 L 681 134 Q 671 134 671 124 L 671 105 Q 671 95 681 95 Z" opacity="0.2"/></g><g transform="translate(3,-14) scale(1,1)"><path fill="#ffffff" stroke="none" d="M 674 88 L 720.78271484375 88 Q 730.78271484375 88 730.78271484375 98 L 730.78271484375 117 Q 730.78271484375 127 720.78271484375 127 L 674 127 Q 664 127 664 117 L 664 98 Q 664 88 674 88 Z"/></g><g transform="translate(3,-14) scale(1,1)"><path fill="none" stroke="#000000" d="M 674 88 L 720.78271484375 88 Q 730.78271484375 88 730.78271484375 98 L 730.78271484375 117 Q 730.78271484375 127 720.78271484375 127 L 674 127 Q 664 127 664 117 L 664 98 Q 664 88 674 88 Z" stroke-miterlimit="10"/></g><g transform="translate(3,-14) scale(1,1)"><g><path fill="none" stroke="none"/><text fill="#000000" stroke="none" font-family="Arial" font-size="13px" font-style="normal" font-weight="bold" text-decoration="none" x="668.5" y="105.5">about_us</text></g></g><g transform="translate(3,-14) scale(1,1)"><path fill="#C0C0C0" stroke="none" d="M 401 119 L 440 119 Q 450 119 450 129 L 450 148 Q 450 158 440 158 L 401 158 Q 391 158 391 148 L 391 129 Q 391 119 401 119 Z" opacity="0.2"/></g><g transform="translate(3,-14) scale(1,1)"><path fill="#ffffff" stroke="none" d="M 394 112 L 433 112 Q 443 112 443 122 L 443 141 Q 443 151 433 151 L 394 151 Q 384 151 384 141 L 384 122 Q 384 112 394 112 Z"/></g><g transform="translate(3,-14) scale(1,1)"><path fill="none" stroke="#000000" d="M 394 112 L 433 112 Q 443 112 443 122 L 443 141 Q 443 151 433 151 L 394 151 Q 384 151 384 141 L 384 122 Q 384 112 394 112 Z" stroke-miterlimit="10"/></g><g transform="translate(3,-14) scale(1,1)"><g><path fill="none" stroke="none"/><text fill="#000000" stroke="none" font-family="Arial" font-size="13px" font-style="normal" font-weight="bold" text-decoration="none" x="394.36181640625" y="129.5">log_in</text></g></g><g transform="translate(3,-14) scale(1,1)"><path fill="#C0C0C0" stroke="none" d="M 503 227.5 L 515.5 215 L 527 227.5 L 515.5 239 L 503 227.5" opacity="0.2"/></g><g transform="translate(3,-14) scale(1,1)"><path fill="#ffffff" stroke="none" d="M 496 220 L 508 208 L 520 220 L 508 232 L 496 220"/></g><g transform="translate(3,-14) scale(1,1)"><path fill="none" stroke="#000000" d="M 496 220 L 508 208 L 520 220 L 508 232 L 496 220 L 496 220" stroke-miterlimit="10"/></g><g transform="translate(3,-14) scale(1,1)"><path fill="#C0C0C0" stroke="none" d="M 265 119 L 304 119 Q 314 119 314 129 L 314 148 Q 314 158 304 158 L 265 158 Q 255 158 255 148 L 255 129 Q 255 119 265 119 Z" opacity="0.2"/></g><g transform="translate(3,-14) scale(1,1)"><path fill="#ffffff" stroke="none" d="M 258 112 L 297 112 Q 307 112 307 122 L 307 141 Q 307 151 297 151 L 258 151 Q 248 151 248 141 L 248 122 Q 248 112 258 112 Z"/></g><g transform="translate(3,-14) scale(1,1)"><path fill="none" stroke="#000000" d="M 258 112 L 297 112 Q 307 112 307 122 L 307 141 Q 307 151 297 151 L 258 151 Q 248 151 248 141 L 248 122 Q 248 112 258 112 Z" stroke-miterlimit="10"/></g><g transform="translate(3,-14) scale(1,1)"><g><path fill="none" stroke="none"/><text fill="#000000" stroke="none" font-family="Arial" font-size="13px" font-style="normal" font-weight="bold" text-decoration="none" x="252.582275390625" y="129.5">sign_up</text></g></g><g transform="translate(3,-14) scale(1,1)"><path fill="none" stroke="#000000" d="M 116 57 L 207 58" stroke-miterlimit="10"/></g><g transform="translate(3,-14) scale(1,1)"><path fill="none" stroke="#000000" d="M 196.7916830567088 62.097592608509714 L 207 58 L 196.88419434488017 53.679065384914345" stroke-miterlimit="10"/></g><g transform="translate(3,-14) scale(1,1)"><g><path fill="none" stroke="none"/><text fill="#000000" stroke="none" font-family="Arial" font-size="13px" font-style="normal" font-weight="normal" text-decoration="none" x="134.5" y="42.5">Page visit</text></g></g><g transform="translate(3,-14) scale(1,1)"><path fill="none" stroke="#000000" d="M 290 59 L 368 59" stroke-miterlimit="10"/></g><g transform="translate(3,-14) scale(1,1)"><path fill="none" stroke="#000000" d="M 357.83732514237585 63.20951775601599 L 368 59 L 357.83732514237585 54.790482243984016" stroke-miterlimit="10"/></g><g transform="translate(3,-14) scale(1,1)"><g><path fill="none" stroke="none"/><text fill="#000000" stroke="none" font-family="Arial" font-size="13px" font-style="normal" font-weight="normal" text-decoration="none" x="281.5" y="34.5">Initial Page View</text></g></g><g transform="translate(3,-14) scale(1,1)"><path fill="none" stroke="#000000" d="M 449 64 L 704 64 L 704 88" stroke-miterlimit="10"/></g><g transform="translate(3,-14) scale(1,1)"><path fill="none" stroke="#000000" d="M 699.790482243984 77.83732514237585 L 704 88 L 708.209517756016 77.83732514237585" stroke-miterlimit="10"/></g><g transform="translate(3,-14) scale(1,1)"><g><path fill="none" stroke="none"/><text fill="#000000" stroke="none" font-family="Arial" font-size="13px" font-style="normal" font-weight="normal" text-decoration="none" x="453.5" y="80.5">About us button clicked</text></g></g><g transform="translate(3,-14) scale(1,1)"><path fill="none" stroke="#000000" d="M 376 79 L 376 114 L 307 114" stroke-miterlimit="10"/></g><g transform="translate(3,-14) scale(1,1)"><path fill="none" stroke="#000000" d="M 317.16267485762415 109.79048224398402 L 307 114 L 317.16267485762415 118.20951775601598" stroke-miterlimit="10"/></g><g transform="translate(3,-14) scale(1,1)"><g><path fill="none" stroke="none"/><text fill="#000000" stroke="none" font-family="Arial" font-size="13px" font-style="normal" font-weight="normal" text-decoration="none" x="225.5" y="97.5">Sign Up Button Clicked</text></g></g><g transform="translate(3,-14) scale(1,1)"><path fill="none" stroke="#000000" d="M 409 79 L 409 112" stroke-miterlimit="10"/></g><g transform="translate(3,-14) scale(1,1)"><path fill="none" stroke="#000000" d="M 404.790482243984 101.83732514237585 L 409 112 L 413.209517756016 101.83732514237585" stroke-miterlimit="10"/></g><g transform="translate(3,-14) scale(1,1)"><g><path fill="none" stroke="none"/><text fill="#000000" stroke="none" font-family="Arial" font-size="13px" font-style="normal" font-weight="normal" text-decoration="none" x="414.5" y="98.5">Log in Button Clicked</text></g></g><g transform="translate(3,-14) scale(1,1)"><path fill="#C0C0C0" stroke="none" d="M 375 379.5 C 375 372.59644 380.59644 367 387.5 367 C 394.40356 367 400 372.59644 400 379.5 C 400 386.40356 394.40356 392 387.5 392 C 380.59644 392 375 386.40356 375 379.5 Z" opacity="0.2"/></g><g transform="translate(3,-14) scale(1,1)"><path fill="none" stroke="#000000" d="M 368 372.5 C 368 365.59644 373.59644 360 380.5 360 C 387.40356 360 393 365.59644 393 372.5 C 393 379.40356 387.40356 385 380.5 385 C 373.59644 385 368 379.40356 368 372.5 Z" stroke-miterlimit="10"/></g><g transform="translate(3,-14) scale(1,1)"><path fill="#000000" stroke="none" d="M 373 372.5 C 373 368.357864 376.357864 365 380.5 365 C 384.642136 365 388 368.357864 388 372.5 C 388 376.642136 384.642136 380 380.5 380 C 376.357864 380 373 376.642136 373 372.5 Z"/></g><g transform="translate(3,-14) scale(1,1)"><path fill="none" stroke="#000000" d="M 410 151 L 410 220 L 496 220" stroke-miterlimit="10"/></g><g transform="translate(3,-14) scale(1,1)"><path fill="none" stroke="#000000" d="M 485.83732514237585 224.209517756016 L 496 220 L 485.83732514237585 215.790482243984" stroke-miterlimit="10"/></g><g transform="translate(3,-14) scale(1,1)"><g><path fill="none" stroke="none"/><text fill="#000000" stroke="none" font-family="Arial" font-size="13px" font-style="normal" font-weight="normal" text-decoration="none" x="414.5" y="170.5">Fill out log in form</text></g></g><g transform="translate(3,-14) scale(1,1)"><path fill="#C0C0C0" stroke="none" d="M 271 220 L 285 207 L 298 220 L 285 232 L 271 220" opacity="0.2"/></g><g transform="translate(3,-14) scale(1,1)"><path fill="#ffffff" stroke="none" d="M 264 212.5 L 277.5 200 L 291 212.5 L 277.5 225 L 264 212.5"/></g><g transform="translate(3,-14) scale(1,1)"><path fill="none" stroke="#000000" d="M 264 212.5 L 277.5 200 L 291 212.5 L 277.5 225 L 264 212.5 L 264 212.5" stroke-miterlimit="10"/></g><g transform="translate(3,-14) scale(1,1)"><path fill="none" stroke="#000000" d="M 276 151 L 276 200" stroke-miterlimit="10"/></g><g transform="translate(3,-14) scale(1,1)"><path fill="none" stroke="#000000" d="M 271.790482243984 189.83732514237585 L 276 200 L 280.209517756016 189.83732514237585" stroke-miterlimit="10"/></g><g transform="translate(3,-14) scale(1,1)"><g><path fill="none" stroke="none"/><text fill="#000000" stroke="none" font-family="Arial" font-size="13px" font-style="normal" font-weight="normal" text-decoration="none" x="159.5" y="169.5">Fill out sign up form</text></g></g><g transform="translate(3,-14) scale(1,1)"><path fill="#C0C0C0" stroke="none" d="M 761 71 L 800 71 Q 810 71 810 81 L 810 100 Q 810 110 800 110 L 761 110 Q 751 110 751 100 L 751 81 Q 751 71 761 71 Z" opacity="0.2"/></g><g transform="translate(3,-14) scale(1,1)"><path fill="#ffffff" stroke="none" d="M 754 64 L 793 64 Q 803 64 803 74 L 803 93 Q 803 103 793 103 L 754 103 Q 744 103 744 93 L 744 74 Q 744 64 754 64 Z"/></g><g transform="translate(3,-14) scale(1,1)"><path fill="none" stroke="#000000" d="M 754 64 L 793 64 Q 803 64 803 74 L 803 93 Q 803 103 793 103 L 754 103 Q 744 103 744 93 L 744 74 Q 744 64 754 64 Z" stroke-miterlimit="10"/></g><g transform="translate(3,-14) scale(1,1)"><g><path fill="none" stroke="none"/><text fill="#000000" stroke="none" font-family="Arial" font-size="13px" font-style="normal" font-weight="bold" text-decoration="none" x="757.9736328125" y="81.5">shop</text></g></g><g transform="translate(3,-14) scale(1,1)"><path fill="none" stroke="#000000" d="M 449 48 L 768 48 L 768 64" stroke-miterlimit="10"/></g><g transform="translate(3,-14) scale(1,1)"><path fill="none" stroke="#000000" d="M 763.790482243984 53.837325142375846 L 768 64 L 772.209517756016 53.837325142375846" stroke-miterlimit="10"/></g><g transform="translate(3,-14) scale(1,1)"><g><path fill="none" stroke="none"/><text fill="#000000" stroke="none" font-family="Arial" font-size="13px" font-style="normal" font-weight="normal" text-decoration="none" x="455.5" y="41.5">Shop button clicked</text></g></g><g transform="translate(3,-14) scale(1,1)"><path fill="none" stroke="#000000" d="M 703 127 L 703 372 L 393 372" stroke-miterlimit="10"/></g><g transform="translate(3,-14) scale(1,1)"><path fill="none" stroke="#000000" d="M 403.16267485762415 367.790482243984 L 393 372 L 403.16267485762415 376.209517756016" stroke-miterlimit="10"/></g><g transform="translate(3,-14) scale(1,1)"><path fill="none" stroke="#000000" d="M 772 103 L 772 372 L 393 372" stroke-miterlimit="10"/></g><g transform="translate(3,-14) scale(1,1)"><path fill="none" stroke="#000000" d="M 403.16267485762415 367.790482243984 L 393 372 L 403.16267485762415 376.209517756016" stroke-miterlimit="10"/></g><g transform="translate(3,-14) scale(1,1)"><path fill="#C0C0C0" stroke="none" d="M 73 303 L 139.29541015625 303 Q 149.29541015625 303 149.29541015625 313 L 149.29541015625 332 Q 149.29541015625 342 139.29541015625 342 L 73 342 Q 63 342 63 332 L 63 313 Q 63 303 73 303 Z" opacity="0.2"/></g><g transform="translate(3,-14) scale(1,1)"><path fill="#ffffff" stroke="none" d="M 66 296 L 132.29541015625 296 Q 142.29541015625 296 142.29541015625 306 L 142.29541015625 325 Q 142.29541015625 335 132.29541015625 335 L 66 335 Q 56 335 56 325 L 56 306 Q 56 296 66 296 Z"/></g><g transform="translate(3,-14) scale(1,1)"><path fill="none" stroke="#000000" d="M 66 296 L 132.29541015625 296 Q 142.29541015625 296 142.29541015625 306 L 142.29541015625 325 Q 142.29541015625 335 132.29541015625 335 L 66 335 Q 56 335 56 325 L 56 306 Q 56 296 66 296 Z" stroke-miterlimit="10"/></g><g transform="translate(3,-14) scale(1,1)"><g><path fill="none" stroke="none"/><text fill="#000000" stroke="none" font-family="Arial" font-size="13px" font-style="normal" font-weight="bold" text-decoration="none" x="60.5" y="313.5">profile_page</text></g></g><g transform="translate(3,-14) scale(1,1)"><path fill="none" stroke="#000000" d="M 264 212 L 99 212 L 99 296" stroke-miterlimit="10"/></g><g transform="translate(3,-14) scale(1,1)"><path fill="none" stroke="#000000" d="M 94.79048224398402 285.83732514237585 L 99 296 L 103.20951775601598 285.83732514237585" stroke-miterlimit="10"/></g><g transform="translate(3,-14) scale(1,1)"><g><path fill="none" stroke="none"/><text fill="#000000" stroke="none" font-family="Arial" font-size="13px" font-style="normal" font-weight="normal" text-decoration="none" x="6.5" y="197.5">Sign Up form is filled correctly. Redirect.</text></g></g><g transform="translate(3,-14) scale(1,1)"><path fill="none" stroke="#000000" d="M 291 216 L 344 216 L 344 136 L 307 136" stroke-miterlimit="10"/></g><g transform="translate(3,-14) scale(1,1)"><path fill="none" stroke="#000000" d="M 317.16267485762415 131.790482243984 L 307 136 L 317.16267485762415 140.209517756016" stroke-miterlimit="10"/></g><g transform="translate(3,-14) scale(1,1)"><g><path fill="none" stroke="none"/><text fill="#000000" stroke="none" font-family="Arial" font-size="13px" font-style="normal" font-weight="normal" text-decoration="none" x="167.5" y="234.5">Sign Up form not filled correctly. Redirect</text></g></g><g transform="translate(3,-14) scale(1,1)"><path fill="none" stroke="#000000" d="M 99 335 L 99 376 L 368 376" stroke-miterlimit="10"/></g><g transform="translate(3,-14) scale(1,1)"><path fill="none" stroke="#000000" d="M 357.83732514237585 380.209517756016 L 368 376 L 357.83732514237585 371.790482243984" stroke-miterlimit="10"/></g><g transform="translate(3,-14) scale(1,1)"><path fill="none" stroke="#000000" d="M 520 224 L 592 224 L 592 128 L 443 128" stroke-miterlimit="10"/></g><g transform="translate(3,-14) scale(1,1)"><path fill="none" stroke="#000000" d="M 453.16267485762415 123.79048224398402 L 443 128 L 453.16267485762415 132.209517756016" stroke-miterlimit="10"/></g><g transform="translate(3,-14) scale(1,1)"><g><path fill="none" stroke="none"/><text fill="#000000" stroke="none" font-family="Arial" font-size="13px" font-style="normal" font-weight="normal" text-decoration="none" x="446.5" y="122.5">Log In not filled in correctly. Redirect</text></g></g><g transform="translate(3,-14) scale(1,1)"><path fill="none" stroke="#000000" d="M 508 232 L 508 312 L 142 312" stroke-miterlimit="10"/></g><g transform="translate(3,-14) scale(1,1)"><path fill="none" stroke="#000000" d="M 152.16267485762415 307.790482243984 L 142 312 L 152.16267485762415 316.209517756016" stroke-miterlimit="10"/></g><g transform="translate(3,-14) scale(1,1)"><g><path fill="none" stroke="none"/><text fill="#000000" stroke="none" font-family="Arial" font-size="13px" font-style="normal" font-weight="normal" text-decoration="none" x="271.5" y="329.5">Log in form is filled correctly. Redirect</text></g></g></g></svg>