<svg version="1.1" xmlns="http://www.w3.org/2000/svg" xmlns:xlink="http://www.w3.org/1999/xlink" width="434.736328125" height="405"><defs/><g><text fill="#eeeeee" stroke="none" font-family="Arial" font-size="24px" font-style="normal" font-weight="normal" text-decoration="none" x="0" y="0">UNREGISTERED</text><text fill="#eeeeee" stroke="none" font-family="Arial" font-size="24px" font-style="normal" font-weight="normal" text-decoration="none" x="0" y="30">UNREGISTERED</text><text fill="#eeeeee" stroke="none" font-family="Arial" font-size="24px" font-style="normal" font-weight="normal" text-decoration="none" x="0" y="60">UNREGISTERED</text><text fill="#eeeeee" stroke="none" font-family="Arial" font-size="24px" font-style="normal" font-weight="normal" text-decoration="none" x="0" y="90">UNREGISTERED</text><text fill="#eeeeee" stroke="none" font-family="Arial" font-size="24px" font-style="normal" font-weight="normal" text-decoration="none" x="0" y="120">UNREGISTERED</text><text fill="#eeeeee" stroke="none" font-family="Arial" font-size="24px" font-style="normal" font-weight="normal" text-decoration="none" x="0" y="150">UNREGISTERED</text><text fill="#eeeeee" stroke="none" font-family="Arial" font-size="24px" font-style="normal" font-weight="normal" text-decoration="none" x="0" y="180">UNREGISTERED</text><text fill="#eeeeee" stroke="none" font-family="Arial" font-size="24px" font-style="normal" font-weight="normal" text-decoration="none" x="0" y="210">UNREGISTERED</text><text fill="#eeeeee" stroke="none" font-family="Arial" font-size="24px" font-style="normal" font-weight="normal" text-decoration="none" x="0" y="240">UNREGISTERED</text><text fill="#eeeeee" stroke="none" font-family="Arial" font-size="24px" font-style="normal" font-weight="normal" text-decoration="none" x="0" y="270">UNREGISTERED</text><text fill="#eeeeee" stroke="none" font-family="Arial" font-size="24px" font-style="normal" font-weight="normal" text-decoration="none" x="0" y="300">UNREGISTERED</text><text fill="#eeeeee" stroke="none" font-family="Arial" font-size="24px" font-style="normal" font-weight="normal" text-decoration="none" x="0" y="330">UNREGISTERED</text><text fill="#eeeeee" stroke="none" font-family="Arial" font-size="24px" font-style="normal" font-weight="normal" text-decoration="none" x="0" y="360">UNREGISTERED</text><text fill="#eeeeee" stroke="none" font-family="Arial" font-size="24px" font-style="normal" font-weight="normal" text-decoration="none" x="0" y="390">UNREGISTERED</text><text fill="#eeeeee" stroke="none" font-family="Arial" font-size="24px" font-style="normal" font-weight="normal" text-decoration="none" x="200" y="0">UNREGISTERED</text><text fill="#eeeeee" stroke="none" font-family="Arial" font-size="24px" font-style="normal" font-weight="normal" text-decoration="none" x="200" y="30">UNREGISTERED</text><text fill="#eeeeee" stroke="none" font-family="Arial" font-size="24px" font-style="normal" font-weight="normal" text-decoration="none" x="200" y="60">UNREGISTERED</text><text fill="#eeeeee" stroke="none" font-family="Arial" font-size="24px" font-style="normal" font-weight="normal" text-decoration="none" x="200" y="90">UNREGISTERED</text><text fill="#eeeeee" stroke="none" font-family="Arial" font-size="24px" font-style="normal" font-weight="normal" text-decoration="none" x="200" y="120">UNREGISTERED</text><text fill="#eeeeee" stroke="none" font-family="Arial" font-size="24px" font-style="normal" font-weight="normal" text-decoration="none" x="200" y="150">UNREGISTERED</text><text fill="#eeeeee" stroke="none" font-family="Arial" font-size="24px" font-style="normal" font-weight="normal" text-decoration="none" x="200" y="180">UNREGISTERED</text><text fill="#eeeeee" stroke="none" font-family="Arial" font-size="24px" font-style="normal" font-weight="normal" text-decoration="none" x="200" y="210">UNREGISTERED</text><text fill="#eeeeee" stroke="none" font-family="Arial" font-size="24px" font-style="normal" font-weight="normal" text-decoration="none" x="200" y="240">UNREGISTERED</text><text fill="#eeeeee" stroke="none" font-family="Arial" font-size="24px" font-style="normal" font-weight="normal" text-decoration="none" x="200" y="270">UNREGISTERED</text><text fill="#eeeeee" stroke="none" font-family="Arial" font-size="24px" font-style="normal" font-weight="normal" text-decoration="none" x="200" y="300">UNREGISTERED</text><text fill="#eeeeee" stroke="none" font-family="Arial" font-size="24px" font-style="normal" font-weight="normal" text-decoration="none" x="200" y="330">UNREGISTERED</text><text fill="#eeeeee" stroke="none" font-family="Arial" font-size="24px" font-style="normal" font-weight="normal" text-decoration="none" x="200" y="360">UNREGISTERED</text><text fill="#eeeeee" stroke="none" font-family="Arial" font-size="24px" font-style="normal" font-weight="normal" text-decoration="none" x="200" y="390">UNREGISTERED</text><text fill="#eeeeee" stroke="none" font-family="Arial" font-size="24px" font-style="normal" font-weight="normal" text-decoration="none" x="400" y="0">UNREGISTERED</text><text fill="#eeeeee" stroke="none" font-family="Arial" font-size="24px" font-style="normal" font-weight="normal" text-decoration="none" x="400" y="30">UNREGISTERED</text><text fill="#eeeeee" stroke="none" font-family="Arial" font-size="24px" font-style="normal" font-weight="normal" text-decoration="none" x="400" y="60">UNREGISTERED</text><text fill="#eeeeee" stroke="none" font-family="Arial" font-size="24px" font-style="normal" font-weight="normal" text-decoration="none" x="400" y="90">UNREGISTERED</text><text fill="#eeeeee" stroke="none" font-family="Arial" font-size="24px" font-style="normal" font-weight="normal" text-decoration="none" x="400" y="120">UNREGISTERED</text><text fill="#eeeeee" stroke="none" font-family="Arial" font-size="24px" font-style="normal" font-weight="normal" text-decoration="none" x="400" y="150">UNREGISTERED</text><text fill="#eeeeee" stroke="none" font-family="Arial" font-size="24px" font-style="normal" font-weight="normal" text-decoration="none" x="400" y="180">UNREGISTERED</text><text fill="#eeeeee" stroke="none" font-family="Arial" font-size="24px" font-style="normal" font-weight="normal" text-decoration="none" x="400" y="210">UNREGISTERED</text><text fill="#eeeeee" stroke="none" font-family="Arial" font-size="24px" font-style="normal" font-weight="normal" text-decoration="none" x="400" y="240">UNREGISTERED</text><text fill="#eeeeee" stroke="none" font-family="Arial" font-size="24px" font-style="normal" font-weight="normal" text-decoration="none" x="400" y="270">UNREGISTERED</text><text fill="#eeeeee" stroke="none" font-family="Arial" font-size="24px" font-style="normal" font-weight="normal" text-decoration="none" x="400" y="300">UNREGISTERED</text><text fill="#eeeeee" stroke="none" font-family="Arial" font-size="24px" font-style="normal" font-weight="normal" text-decoration="none" x="400" y="330">UNREGISTERED</text><text fill="#eeeeee" stroke="none" font-family="Arial" font-size="24px" font-style="normal" font-weight="normal" text-decoration="none" x="400" y="360">UNREGISTERED</text><text fill="#eeeeee" stroke="none" font-family="Arial" font-size="24px" font-style="normal" font-weight="normal" text-decoration="none" x="400" y="390">UNREGISTERED</text><g transform="translate(-9,2) scale(1,1)"><path fill="#C0C0C0" stroke="none" d="M 47 56.5 C 47 51.2532944 51.2532944 47 56.5 47 C 61.7467056 47 66 51.2532944 66 56.5 C 66 61.7467056 61.7467056 66 56.5 66 C 51.2532944 66 47 61.7467056 47 56.5 Z" opacity="0.2"/></g><g transform="translate(-9,2) scale(1,1)"><path fill="#000000" stroke="none" d="M 40 49.5 C 40 44.2532944 44.2532944 40 49.5 40 C 54.7467056 40 59 44.2532944 59 49.5 C 59 54.7467056 54.7467056 59 49.5 59 C 44.2532944 59 40 54.7467056 40 49.5 Z"/></g><g transform="translate(-9,2) scale(1,1)"><path fill="#C0C0C0" stroke="none" d="M 343 387.5 C 343 380.59644 348.59644 375 355.5 375 C 362.40356 375 368 380.59644 368 387.5 C 368 394.40356 362.40356 400 355.5 400 C 348.59644 400 343 394.40356 343 387.5 Z" opacity="0.2"/></g><g transform="translate(-9,2) scale(1,1)"><path fill="none" stroke="#000000" d="M 336 380.5 C 336 373.59644 341.59644 368 348.5 368 C 355.40356 368 361 373.59644 361 380.5 C 361 387.40356 355.40356 393 348.5 393 C 341.59644 393 336 387.40356 336 380.5 Z" stroke-miterlimit="10"/></g><g transform="translate(-9,2) scale(1,1)"><path fill="#000000" stroke="none" d="M 341 380.5 C 341 376.357864 344.357864 373 348.5 373 C 352.642136 373 356 376.357864 356 380.5 C 356 384.642136 352.642136 388 348.5 388 C 344.357864 388 341 384.642136 341 380.5 Z"/></g><g transform="translate(-9,2) scale(1,1)"><path fill="#C0C0C0" stroke="none" d="M 161 31 L 253.314453125 31 Q 263.314453125 31 263.314453125 41 L 263.314453125 60 Q 263.314453125 70 253.314453125 70 L 161 70 Q 151 70 151 60 L 151 41 Q 151 31 161 31 Z" opacity="0.2"/></g><g transform="translate(-9,2) scale(1,1)"><path fill="#ffffff" stroke="none" d="M 154 24 L 246.314453125 24 Q 256.314453125 24 256.314453125 34 L 256.314453125 53 Q 256.314453125 63 246.314453125 63 L 154 63 Q 144 63 144 53 L 144 34 Q 144 24 154 24 Z"/></g><g transform="translate(-9,2) scale(1,1)"><path fill="none" stroke="#000000" d="M 154 24 L 246.314453125 24 Q 256.314453125 24 256.314453125 34 L 256.314453125 53 Q 256.314453125 63 246.314453125 63 L 154 63 Q 144 63 144 53 L 144 34 Q 144 24 154 24 Z" stroke-miterlimit="10"/></g><g transform="translate(-9,2) scale(1,1)"><g><path fill="none" stroke="none"/><text fill="#000000" stroke="none" font-family="Arial" font-size="13px" font-style="normal" font-weight="bold" text-decoration="none" x="148.5" y="41.5">apply_for_coach</text></g></g><g transform="translate(-9,2) scale(1,1)"><path fill="none" stroke="#000000" d="M 59 47 L 144 47" stroke-miterlimit="10"/></g><g transform="translate(-9,2) scale(1,1)"><path fill="none" stroke="#000000" d="M 133.83732514237585 51.20951775601599 L 144 47 L 133.83732514237585 42.790482243984016" stroke-miterlimit="10"/></g><g transform="translate(-9,2) scale(1,1)"><g><path fill="none" stroke="none"/><text fill="#000000" stroke="none" font-family="Arial" font-size="13px" font-style="normal" font-weight="normal" text-decoration="none" x="18.5" y="18.5">Apply for coach button clicked</text></g></g><g transform="translate(-9,2) scale(1,1)"><path fill="#C0C0C0" stroke="none" d="M 337 111 L 430.736328125 111 Q 440.736328125 111 440.736328125 121 L 440.736328125 140 Q 440.736328125 150 430.736328125 150 L 337 150 Q 327 150 327 140 L 327 121 Q 327 111 337 111 Z" opacity="0.2"/></g><g transform="translate(-9,2) scale(1,1)"><path fill="#ffffff" stroke="none" d="M 330 104 L 423.736328125 104 Q 433.736328125 104 433.736328125 114 L 433.736328125 133 Q 433.736328125 143 423.736328125 143 L 330 143 Q 320 143 320 133 L 320 114 Q 320 104 330 104 Z"/></g><g transform="translate(-9,2) scale(1,1)"><path fill="none" stroke="#000000" d="M 330 104 L 423.736328125 104 Q 433.736328125 104 433.736328125 114 L 433.736328125 133 Q 433.736328125 143 423.736328125 143 L 330 143 Q 320 143 320 133 L 320 114 Q 320 104 330 104 Z" stroke-miterlimit="10"/></g><g transform="translate(-9,2) scale(1,1)"><g><path fill="none" stroke="none"/><text fill="#000000" stroke="none" font-family="Arial" font-size="13px" font-style="normal" font-weight="bold" text-decoration="none" x="336.411376953125" y="121.5">cv_turned_in</text></g></g><g transform="translate(-9,2) scale(1,1)"><path fill="none" stroke="#000000" d="M 256 48 L 368 48 L 368 104" stroke-miterlimit="10"/></g><g transform="translate(-9,2) scale(1,1)"><path fill="none" stroke="#000000" d="M 363.790482243984 93.83732514237585 L 368 104 L 372.209517756016 93.83732514237585" stroke-miterlimit="10"/></g><g transform="translate(-9,2) scale(1,1)"><g><path fill="none" stroke="none"/><text fill="#000000" stroke="none" font-family="Arial" font-size="13px" font-style="normal" font-weight="normal" text-decoration="none" x="279.5" y="41.5">Turn CV in</text></g></g><g transform="translate(-9,2) scale(1,1)"><path fill="#C0C0C0" stroke="none" d="M 257 183 L 296 183 Q 306 183 306 193 L 306 212 Q 306 222 296 222 L 257 222 Q 247 222 247 212 L 247 193 Q 247 183 257 183 Z" opacity="0.2"/></g><g transform="translate(-9,2) scale(1,1)"><path fill="#ffffff" stroke="none" d="M 250 176 L 289 176 Q 299 176 299 186 L 299 205 Q 299 215 289 215 L 250 215 Q 240 215 240 205 L 240 186 Q 240 176 250 176 Z"/></g><g transform="translate(-9,2) scale(1,1)"><path fill="none" stroke="#000000" d="M 250 176 L 289 176 Q 299 176 299 186 L 299 205 Q 299 215 289 215 L 250 215 Q 240 215 240 205 L 240 186 Q 240 176 250 176 Z" stroke-miterlimit="10"/></g><g transform="translate(-9,2) scale(1,1)"><g><path fill="none" stroke="none"/><text fill="#000000" stroke="none" font-family="Arial" font-size="13px" font-style="normal" font-weight="bold" text-decoration="none" x="245.293212890625" y="193.5">validate</text></g></g><g transform="translate(-9,2) scale(1,1)"><path fill="none" stroke="#000000" d="M 345 143 L 345 195 L 299 195" stroke-miterlimit="10"/></g><g transform="translate(-9,2) scale(1,1)"><path fill="none" stroke="#000000" d="M 309.16267485762415 190.790482243984 L 299 195 L 309.16267485762415 199.209517756016" stroke-miterlimit="10"/></g><g transform="translate(-9,2) scale(1,1)"><g><path fill="none" stroke="none"/><text fill="#000000" stroke="none" font-family="Arial" font-size="13px" font-style="normal" font-weight="normal" text-decoration="none" x="223.5" y="161.5">Validate information</text></g></g><g transform="translate(-9,2) scale(1,1)"><path fill="#C0C0C0" stroke="none" d="M 313 279 L 400.99169921875 279 Q 410.99169921875 279 410.99169921875 289 L 410.99169921875 308 Q 410.99169921875 318 400.99169921875 318 L 313 318 Q 303 318 303 308 L 303 289 Q 303 279 313 279 Z" opacity="0.2"/></g><g transform="translate(-9,2) scale(1,1)"><path fill="#ffffff" stroke="none" d="M 306 272 L 393.99169921875 272 Q 403.99169921875 272 403.99169921875 282 L 403.99169921875 301 Q 403.99169921875 311 393.99169921875 311 L 306 311 Q 296 311 296 301 L 296 282 Q 296 272 306 272 Z"/></g><g transform="translate(-9,2) scale(1,1)"><path fill="none" stroke="#000000" d="M 306 272 L 393.99169921875 272 Q 403.99169921875 272 403.99169921875 282 L 403.99169921875 301 Q 403.99169921875 311 393.99169921875 311 L 306 311 Q 296 311 296 301 L 296 282 Q 296 272 306 272 Z" stroke-miterlimit="10"/></g><g transform="translate(-9,2) scale(1,1)"><g><path fill="none" stroke="none"/><text fill="#000000" stroke="none" font-family="Arial" font-size="13px" font-style="normal" font-weight="bold" text-decoration="none" x="302.66455078125" y="289.5">response_back</text></g></g><g transform="translate(-9,2) scale(1,1)"><path fill="none" stroke="#000000" d="M 272 215 L 272 291 L 296 291" stroke-miterlimit="10"/></g><g transform="translate(-9,2) scale(1,1)"><path fill="none" stroke="#000000" d="M 285.83732514237585 295.209517756016 L 296 291 L 285.83732514237585 286.790482243984" stroke-miterlimit="10"/></g><g transform="translate(-9,2) scale(1,1)"><g><path fill="none" stroke="none"/><text fill="#000000" stroke="none" font-family="Arial" font-size="13px" font-style="normal" font-weight="normal" text-decoration="none" x="279.5" y="258.5">Send response to user</text></g></g><g transform="translate(-9,2) scale(1,1)"><path fill="none" stroke="#000000" d="M 347 311 L 347 368" stroke-miterlimit="10"/></g><g transform="translate(-9,2) scale(1,1)"><path fill="none" stroke="#000000" d="M 342.790482243984 357.83732514237585 L 347 368 L 351.209517756016 357.83732514237585" stroke-miterlimit="10"/></g></g></svg>