<svg version="1.1" xmlns="http://www.w3.org/2000/svg" xmlns:xlink="http://www.w3.org/1999/xlink" width="384.8271484375" height="227"><defs/><g><text fill="#eeeeee" stroke="none" font-family="Arial" font-size="24px" font-style="normal" font-weight="normal" text-decoration="none" x="0" y="0">UNREGISTERED</text><text fill="#eeeeee" stroke="none" font-family="Arial" font-size="24px" font-style="normal" font-weight="normal" text-decoration="none" x="0" y="30">UNREGISTERED</text><text fill="#eeeeee" stroke="none" font-family="Arial" font-size="24px" font-style="normal" font-weight="normal" text-decoration="none" x="0" y="60">UNREGISTERED</text><text fill="#eeeeee" stroke="none" font-family="Arial" font-size="24px" font-style="normal" font-weight="normal" text-decoration="none" x="0" y="90">UNREGISTERED</text><text fill="#eeeeee" stroke="none" font-family="Arial" font-size="24px" font-style="normal" font-weight="normal" text-decoration="none" x="0" y="120">UNREGISTERED</text><text fill="#eeeeee" stroke="none" font-family="Arial" font-size="24px" font-style="normal" font-weight="normal" text-decoration="none" x="0" y="150">UNREGISTERED</text><text fill="#eeeeee" stroke="none" font-family="Arial" font-size="24px" font-style="normal" font-weight="normal" text-decoration="none" x="0" y="180">UNREGISTERED</text><text fill="#eeeeee" stroke="none" font-family="Arial" font-size="24px" font-style="normal" font-weight="normal" text-decoration="none" x="0" y="210">UNREGISTERED</text><text fill="#eeeeee" stroke="none" font-family="Arial" font-size="24px" font-style="normal" font-weight="normal" text-decoration="none" x="200" y="0">UNREGISTERED</text><text fill="#eeeeee" stroke="none" font-family="Arial" font-size="24px" font-style="normal" font-weight="normal" text-decoration="none" x="200" y="30">UNREGISTERED</text><text fill="#eeeeee" stroke="none" font-family="Arial" font-size="24px" font-style="normal" font-weight="normal" text-decoration="none" x="200" y="60">UNREGISTERED</text><text fill="#eeeeee" stroke="none" font-family="Arial" font-size="24px" font-style="normal" font-weight="normal" text-decoration="none" x="200" y="90">UNREGISTERED</text><text fill="#eeeeee" stroke="none" font-family="Arial" font-size="24px" font-style="normal" font-weight="normal" text-decoration="none" x="200" y="120">UNREGISTERED</text><text fill="#eeeeee" stroke="none" font-family="Arial" font-size="24px" font-style="normal" font-weight="normal" text-decoration="none" x="200" y="150">UNREGISTERED</text><text fill="#eeeeee" stroke="none" font-family="Arial" font-size="24px" font-style="normal" font-weight="normal" text-decoration="none" x="200" y="180">UNREGISTERED</text><text fill="#eeeeee" stroke="none" font-family="Arial" font-size="24px" font-style="normal" font-weight="normal" text-decoration="none" x="200" y="210">UNREGISTERED</text><g transform="translate(-27,0) scale(1,1)"><path fill="#C0C0C0" stroke="none" d="M 49 46.5 C 49 41.2532944 53.2532944 37 58.5 37 C 63.7467056 37 68 41.2532944 68 46.5 C 68 51.7467056 63.7467056 56 58.5 56 C 53.2532944 56 49 51.7467056 49 46.5 Z" opacity="0.2"/></g><g transform="translate(-27,0) scale(1,1)"><path fill="#000000" stroke="none" d="M 42 39.5 C 42 34.2532944 46.2532944 30 51.5 30 C 56.7467056 30 61 34.2532944 61 39.5 C 61 44.7467056 56.7467056 49 51.5 49 C 46.2532944 49 42 44.7467056 42 39.5 Z"/></g><g transform="translate(-27,0) scale(1,1)"><path fill="#C0C0C0" stroke="none" d="M 215 211.5 C 215 204.59644 220.59644 199 227.5 199 C 234.40356 199 240 204.59644 240 211.5 C 240 218.40356 234.40356 224 227.5 224 C 220.59644 224 215 218.40356 215 211.5 Z" opacity="0.2"/></g><g transform="translate(-27,0) scale(1,1)"><path fill="none" stroke="#000000" d="M 208 204.5 C 208 197.59644 213.59644 192 220.5 192 C 227.40356 192 233 197.59644 233 204.5 C 233 211.40356 227.40356 217 220.5 217 C 213.59644 217 208 211.40356 208 204.5 Z" stroke-miterlimit="10"/></g><g transform="translate(-27,0) scale(1,1)"><path fill="#000000" stroke="none" d="M 213 204.5 C 213 200.357864 216.357864 197 220.5 197 C 224.642136 197 228 200.357864 228 204.5 C 228 208.642136 224.642136 212 220.5 212 C 216.357864 212 213 208.642136 213 204.5 Z"/></g><g transform="translate(-27,0) scale(1,1)"><path fill="#C0C0C0" stroke="none" d="M 153 31 L 213.525390625 31 Q 223.525390625 31 223.525390625 41 L 223.525390625 60 Q 223.525390625 70 213.525390625 70 L 153 70 Q 143 70 143 60 L 143 41 Q 143 31 153 31 Z" opacity="0.2"/></g><g transform="translate(-27,0) scale(1,1)"><path fill="#ffffff" stroke="none" d="M 146 24 L 206.525390625 24 Q 216.525390625 24 216.525390625 34 L 216.525390625 53 Q 216.525390625 63 206.525390625 63 L 146 63 Q 136 63 136 53 L 136 34 Q 136 24 146 24 Z"/></g><g transform="translate(-27,0) scale(1,1)"><path fill="none" stroke="#000000" d="M 146 24 L 206.525390625 24 Q 216.525390625 24 216.525390625 34 L 216.525390625 53 Q 216.525390625 63 206.525390625 63 L 146 63 Q 136 63 136 53 L 136 34 Q 136 24 146 24 Z" stroke-miterlimit="10"/></g><g transform="translate(-27,0) scale(1,1)"><g><path fill="none" stroke="none"/><text fill="#000000" stroke="none" font-family="Arial" font-size="13px" font-style="normal" font-weight="bold" text-decoration="none" x="140.5" y="41.5">video_page</text></g></g><g transform="translate(-27,0) scale(1,1)"><path fill="none" stroke="#000000" d="M 61 42 L 136 42" stroke-miterlimit="10"/></g><g transform="translate(-27,0) scale(1,1)"><path fill="none" stroke="#000000" d="M 125.83732514237585 46.20951775601599 L 136 42 L 125.83732514237585 37.790482243984016" stroke-miterlimit="10"/></g><g transform="translate(-27,0) scale(1,1)"><g><path fill="none" stroke="none"/><text fill="#000000" stroke="none" font-family="Arial" font-size="13px" font-style="normal" font-weight="normal" text-decoration="none" x="36.5" y="20.5">Video button clicked</text></g></g><g transform="translate(-27,0) scale(1,1)"><path fill="#C0C0C0" stroke="none" d="M 313 63 L 398.8271484375 63 Q 408.8271484375 63 408.8271484375 73 L 408.8271484375 92 Q 408.8271484375 102 398.8271484375 102 L 313 102 Q 303 102 303 92 L 303 73 Q 303 63 313 63 Z" opacity="0.2"/></g><g transform="translate(-27,0) scale(1,1)"><path fill="#ffffff" stroke="none" d="M 306 56 L 391.8271484375 56 Q 401.8271484375 56 401.8271484375 66 L 401.8271484375 85 Q 401.8271484375 95 391.8271484375 95 L 306 95 Q 296 95 296 85 L 296 66 Q 296 56 306 56 Z"/></g><g transform="translate(-27,0) scale(1,1)"><path fill="none" stroke="#000000" d="M 306 56 L 391.8271484375 56 Q 401.8271484375 56 401.8271484375 66 L 401.8271484375 85 Q 401.8271484375 95 391.8271484375 95 L 306 95 Q 296 95 296 85 L 296 66 Q 296 56 306 56 Z" stroke-miterlimit="10"/></g><g transform="translate(-27,0) scale(1,1)"><g><path fill="none" stroke="none"/><text fill="#000000" stroke="none" font-family="Arial" font-size="13px" font-style="normal" font-weight="bold" text-decoration="none" x="300.5" y="73.5">preview_videos</text></g></g><g transform="translate(-27,0) scale(1,1)"><path fill="none" stroke="#000000" d="M 217 40 L 352 40 L 352 56" stroke-miterlimit="10"/></g><g transform="translate(-27,0) scale(1,1)"><path fill="none" stroke="#000000" d="M 347.790482243984 45.837325142375846 L 352 56 L 356.209517756016 45.837325142375846" stroke-miterlimit="10"/></g><g transform="translate(-27,0) scale(1,1)"><g><path fill="none" stroke="none"/><text fill="#000000" stroke="none" font-family="Arial" font-size="13px" font-style="normal" font-weight="normal" text-decoration="none" x="231.5" y="33.5">User clicks on video</text></g></g><g transform="translate(-27,0) scale(1,1)"><path fill="#C0C0C0" stroke="none" d="M 215 136.5 L 227.5 127 L 239 136.5 L 227.5 145 L 215 136.5" opacity="0.2"/></g><g transform="translate(-27,0) scale(1,1)"><path fill="#ffffff" stroke="none" d="M 208 129 L 220 120 L 232 129 L 220 138 L 208 129"/></g><g transform="translate(-27,0) scale(1,1)"><path fill="none" stroke="#000000" d="M 208 129 L 220 120 L 232 129 L 220 138 L 208 129 L 208 129" stroke-miterlimit="10"/></g><g transform="translate(-27,0) scale(1,1)"><path fill="none" stroke="#000000" d="M 312 95 L 312 124 L 232 124" stroke-miterlimit="10"/></g><g transform="translate(-27,0) scale(1,1)"><path fill="none" stroke="#000000" d="M 242.16267485762415 119.79048224398402 L 232 124 L 242.16267485762415 128.209517756016" stroke-miterlimit="10"/></g><g transform="translate(-27,0) scale(1,1)"><g><path fill="none" stroke="none"/><text fill="#000000" stroke="none" font-family="Arial" font-size="13px" font-style="normal" font-weight="normal" text-decoration="none" x="238.5" y="113.5">Video Ends</text></g></g><g transform="translate(-27,0) scale(1,1)"><path fill="none" stroke="#000000" d="M 232 136 L 344 136 L 344 95" stroke-miterlimit="10"/></g><g transform="translate(-27,0) scale(1,1)"><path fill="none" stroke="#000000" d="M 348.209517756016 105.16267485762415 L 344 95 L 339.790482243984 105.16267485762415" stroke-miterlimit="10"/></g><g transform="translate(-27,0) scale(1,1)"><g><path fill="none" stroke="none"/><text fill="#000000" stroke="none" font-family="Arial" font-size="13px" font-style="normal" font-weight="normal" text-decoration="none" x="270.5" y="154.5">Preview another video</text></g></g><g transform="translate(-27,0) scale(1,1)"><path fill="none" stroke="#000000" d="M 220 139 L 220 191" stroke-miterlimit="10"/></g><g transform="translate(-27,0) scale(1,1)"><path fill="none" stroke="#000000" d="M 215.790482243984 180.83732514237585 L 220 191 L 224.209517756016 180.83732514237585" stroke-miterlimit="10"/></g></g></svg>