<svg version="1.1" xmlns="http://www.w3.org/2000/svg" xmlns:xlink="http://www.w3.org/1999/xlink" width="587.07470703125" height="421"><defs/><g><text fill="#eeeeee" stroke="none" font-family="Arial" font-size="24px" font-style="normal" font-weight="normal" text-decoration="none" x="0" y="0">UNREGISTERED</text><text fill="#eeeeee" stroke="none" font-family="Arial" font-size="24px" font-style="normal" font-weight="normal" text-decoration="none" x="0" y="30">UNREGISTERED</text><text fill="#eeeeee" stroke="none" font-family="Arial" font-size="24px" font-style="normal" font-weight="normal" text-decoration="none" x="0" y="60">UNREGISTERED</text><text fill="#eeeeee" stroke="none" font-family="Arial" font-size="24px" font-style="normal" font-weight="normal" text-decoration="none" x="0" y="90">UNREGISTERED</text><text fill="#eeeeee" stroke="none" font-family="Arial" font-size="24px" font-style="normal" font-weight="normal" text-decoration="none" x="0" y="120">UNREGISTERED</text><text fill="#eeeeee" stroke="none" font-family="Arial" font-size="24px" font-style="normal" font-weight="normal" text-decoration="none" x="0" y="150">UNREGISTERED</text><text fill="#eeeeee" stroke="none" font-family="Arial" font-size="24px" font-style="normal" font-weight="normal" text-decoration="none" x="0" y="180">UNREGISTERED</text><text fill="#eeeeee" stroke="none" font-family="Arial" font-size="24px" font-style="normal" font-weight="normal" text-decoration="none" x="0" y="210">UNREGISTERED</text><text fill="#eeeeee" stroke="none" font-family="Arial" font-size="24px" font-style="normal" font-weight="normal" text-decoration="none" x="0" y="240">UNREGISTERED</text><text fill="#eeeeee" stroke="none" font-family="Arial" font-size="24px" font-style="normal" font-weight="normal" text-decoration="none" x="0" y="270">UNREGISTERED</text><text fill="#eeeeee" stroke="none" font-family="Arial" font-size="24px" font-style="normal" font-weight="normal" text-decoration="none" x="0" y="300">UNREGISTERED</text><text fill="#eeeeee" stroke="none" font-family="Arial" font-size="24px" font-style="normal" font-weight="normal" text-decoration="none" x="0" y="330">UNREGISTERED</text><text fill="#eeeeee" stroke="none" font-family="Arial" font-size="24px" font-style="normal" font-weight="normal" text-decoration="none" x="0" y="360">UNREGISTERED</text><text fill="#eeeeee" stroke="none" font-family="Arial" font-size="24px" font-style="normal" font-weight="normal" text-decoration="none" x="0" y="390">UNREGISTERED</text><text fill="#eeeeee" stroke="none" font-family="Arial" font-size="24px" font-style="normal" font-weight="normal" text-decoration="none" x="0" y="420">UNREGISTERED</text><text fill="#eeeeee" stroke="none" font-family="Arial" font-size="24px" font-style="normal" font-weight="normal" text-decoration="none" x="200" y="0">UNREGISTERED</text><text fill="#eeeeee" stroke="none" font-family="Arial" font-size="24px" font-style="normal" font-weight="normal" text-decoration="none" x="200" y="30">UNREGISTERED</text><text fill="#eeeeee" stroke="none" font-family="Arial" font-size="24px" font-style="normal" font-weight="normal" text-decoration="none" x="200" y="60">UNREGISTERED</text><text fill="#eeeeee" stroke="none" font-family="Arial" font-size="24px" font-style="normal" font-weight="normal" text-decoration="none" x="200" y="90">UNREGISTERED</text><text fill="#eeeeee" stroke="none" font-family="Arial" font-size="24px" font-style="normal" font-weight="normal" text-decoration="none" x="200" y="120">UNREGISTERED</text><text fill="#eeeeee" stroke="none" font-family="Arial" font-size="24px" font-style="normal" font-weight="normal" text-decoration="none" x="200" y="150">UNREGISTERED</text><text fill="#eeeeee" stroke="none" font-family="Arial" font-size="24px" font-style="normal" font-weight="normal" text-decoration="none" x="200" y="180">UNREGISTERED</text><text fill="#eeeeee" stroke="none" font-family="Arial" font-size="24px" font-style="normal" font-weight="normal" text-decoration="none" x="200" y="210">UNREGISTERED</text><text fill="#eeeeee" stroke="none" font-family="Arial" font-size="24px" font-style="normal" font-weight="normal" text-decoration="none" x="200" y="240">UNREGISTERED</text><text fill="#eeeeee" stroke="none" font-family="Arial" font-size="24px" font-style="normal" font-weight="normal" text-decoration="none" x="200" y="270">UNREGISTERED</text><text fill="#eeeeee" stroke="none" font-family="Arial" font-size="24px" font-style="normal" font-weight="normal" text-decoration="none" x="200" y="300">UNREGISTERED</text><text fill="#eeeeee" stroke="none" font-family="Arial" font-size="24px" font-style="normal" font-weight="normal" text-decoration="none" x="200" y="330">UNREGISTERED</text><text fill="#eeeeee" stroke="none" font-family="Arial" font-size="24px" font-style="normal" font-weight="normal" text-decoration="none" x="200" y="360">UNREGISTERED</text><text fill="#eeeeee" stroke="none" font-family="Arial" font-size="24px" font-style="normal" font-weight="normal" text-decoration="none" x="200" y="390">UNREGISTERED</text><text fill="#eeeeee" stroke="none" font-family="Arial" font-size="24px" font-style="normal" font-weight="normal" text-decoration="none" x="200" y="420">UNREGISTERED</text><text fill="#eeeeee" stroke="none" font-family="Arial" font-size="24px" font-style="normal" font-weight="normal" text-decoration="none" x="400" y="0">UNREGISTERED</text><text fill="#eeeeee" stroke="none" font-family="Arial" font-size="24px" font-style="normal" font-weight="normal" text-decoration="none" x="400" y="30">UNREGISTERED</text><text fill="#eeeeee" stroke="none" font-family="Arial" font-size="24px" font-style="normal" font-weight="normal" text-decoration="none" x="400" y="60">UNREGISTERED</text><text fill="#eeeeee" stroke="none" font-family="Arial" font-size="24px" font-style="normal" font-weight="normal" text-decoration="none" x="400" y="90">UNREGISTERED</text><text fill="#eeeeee" stroke="none" font-family="Arial" font-size="24px" font-style="normal" font-weight="normal" text-decoration="none" x="400" y="120">UNREGISTERED</text><text fill="#eeeeee" stroke="none" font-family="Arial" font-size="24px" font-style="normal" font-weight="normal" text-decoration="none" x="400" y="150">UNREGISTERED</text><text fill="#eeeeee" stroke="none" font-family="Arial" font-size="24px" font-style="normal" font-weight="normal" text-decoration="none" x="400" y="180">UNREGISTERED</text><text fill="#eeeeee" stroke="none" font-family="Arial" font-size="24px" font-style="normal" font-weight="normal" text-decoration="none" x="400" y="210">UNREGISTERED</text><text fill="#eeeeee" stroke="none" font-family="Arial" font-size="24px" font-style="normal" font-weight="normal" text-decoration="none" x="400" y="240">UNREGISTERED</text><text fill="#eeeeee" stroke="none" font-family="Arial" font-size="24px" font-style="normal" font-weight="normal" text-decoration="none" x="400" y="270">UNREGISTERED</text><text fill="#eeeeee" stroke="none" font-family="Arial" font-size="24px" font-style="normal" font-weight="normal" text-decoration="none" x="400" y="300">UNREGISTERED</text><text fill="#eeeeee" stroke="none" font-family="Arial" font-size="24px" font-style="normal" font-weight="normal" text-decoration="none" x="400" y="330">UNREGISTERED</text><text fill="#eeeeee" stroke="none" font-family="Arial" font-size="24px" font-style="normal" font-weight="normal" text-decoration="none" x="400" y="360">UNREGISTERED</text><text fill="#eeeeee" stroke="none" font-family="Arial" font-size="24px" font-style="normal" font-weight="normal" text-decoration="none" x="400" y="390">UNREGISTERED</text><text fill="#eeeeee" stroke="none" font-family="Arial" font-size="24px" font-style="normal" font-weight="normal" text-decoration="none" x="400" y="420">UNREGISTERED</text><g transform="translate(-6,2) scale(1,1)"><path fill="#C0C0C0" stroke="none" d="M 121 39 L 187.3017578125 39 Q 197.3017578125 39 197.3017578125 49 L 197.3017578125 68 Q 197.3017578125 78 187.3017578125 78 L 121 78 Q 111 78 111 68 L 111 49 Q 111 39 121 39 Z" opacity="0.2"/></g><g transform="translate(-6,2) scale(1,1)"><path fill="#ffffff" stroke="none" d="M 114 32 L 180.3017578125 32 Q 190.3017578125 32 190.3017578125 42 L 190.3017578125 61 Q 190.3017578125 71 180.3017578125 71 L 114 71 Q 104 71 104 61 L 104 42 Q 104 32 114 32 Z"/></g><g transform="translate(-6,2) scale(1,1)"><path fill="none" stroke="#000000" d="M 114 32 L 180.3017578125 32 Q 190.3017578125 32 190.3017578125 42 L 190.3017578125 61 Q 190.3017578125 71 180.3017578125 71 L 114 71 Q 104 71 104 61 L 104 42 Q 104 32 114 32 Z" stroke-miterlimit="10"/></g><g transform="translate(-6,2) scale(1,1)"><g><path fill="none" stroke="none"/><text fill="#000000" stroke="none" font-family="Arial" font-size="13px" font-style="normal" font-weight="bold" text-decoration="none" x="108.5" y="49.5">membership</text></g></g><g transform="translate(-6,2) scale(1,1)"><path fill="#C0C0C0" stroke="none" d="M 23 56.5 C 23 51.2532944 27.2532944 47 32.5 47 C 37.7467056 47 42 51.2532944 42 56.5 C 42 61.7467056 37.7467056 66 32.5 66 C 27.2532944 66 23 61.7467056 23 56.5 Z" opacity="0.2"/></g><g transform="translate(-6,2) scale(1,1)"><path fill="#000000" stroke="none" d="M 16 49.5 C 16 44.2532944 20.2532944 40 25.5 40 C 30.7467056 40 35 44.2532944 35 49.5 C 35 54.7467056 30.7467056 59 25.5 59 C 20.2532944 59 16 54.7467056 16 49.5 Z"/></g><g transform="translate(-6,2) scale(1,1)"><path fill="none" stroke="#000000" d="M 36 49 L 103 50" stroke-miterlimit="10"/></g><g transform="translate(-6,2) scale(1,1)"><path fill="none" stroke="#000000" d="M 92.77563528005295 54.05738414172261 L 103 50 L 92.90127853271014 45.63928621369176" stroke-miterlimit="10"/></g><g transform="translate(-6,2) scale(1,1)"><g><path fill="none" stroke="none"/><text fill="#000000" stroke="none" font-family="Arial" font-size="13px" font-style="normal" font-weight="normal" text-decoration="none" x="22.5" y="18.5">Membership button clicked</text></g></g><g transform="translate(-6,2) scale(1,1)"><path fill="#C0C0C0" stroke="none" d="M 281 47 L 406.5634765625 47 Q 416.5634765625 47 416.5634765625 57 L 416.5634765625 76 Q 416.5634765625 86 406.5634765625 86 L 281 86 Q 271 86 271 76 L 271 57 Q 271 47 281 47 Z" opacity="0.2"/></g><g transform="translate(-6,2) scale(1,1)"><path fill="#ffffff" stroke="none" d="M 274 40 L 399.5634765625 40 Q 409.5634765625 40 409.5634765625 50 L 409.5634765625 69 Q 409.5634765625 79 399.5634765625 79 L 274 79 Q 264 79 264 69 L 264 50 Q 264 40 274 40 Z"/></g><g transform="translate(-6,2) scale(1,1)"><path fill="none" stroke="#000000" d="M 274 40 L 399.5634765625 40 Q 409.5634765625 40 409.5634765625 50 L 409.5634765625 69 Q 409.5634765625 79 399.5634765625 79 L 274 79 Q 264 79 264 69 L 264 50 Q 264 40 274 40 Z" stroke-miterlimit="10"/></g><g transform="translate(-6,2) scale(1,1)"><g><path fill="none" stroke="none"/><text fill="#000000" stroke="none" font-family="Arial" font-size="13px" font-style="normal" font-weight="bold" text-decoration="none" x="280.07177734375" y="57.5">membership_form</text></g></g><g transform="translate(-6,2) scale(1,1)"><path fill="none" stroke="#000000" d="M 190 56 L 264 56" stroke-miterlimit="10"/></g><g transform="translate(-6,2) scale(1,1)"><path fill="none" stroke="#000000" d="M 253.83732514237585 60.20951775601599 L 264 56 L 253.83732514237585 51.790482243984016" stroke-miterlimit="10"/></g><g transform="translate(-6,2) scale(1,1)"><g><path fill="none" stroke="none"/><text fill="#000000" stroke="none" font-family="Arial" font-size="13px" font-style="normal" font-weight="normal" text-decoration="none" x="204.5" y="33.5">Membership is chosen</text></g></g><g transform="translate(-6,2) scale(1,1)"><path fill="#C0C0C0" stroke="none" d="M 327 120.5 L 338.5 111 L 349 120.5 L 338.5 129 L 327 120.5" opacity="0.2"/></g><g transform="translate(-6,2) scale(1,1)"><path fill="#ffffff" stroke="none" d="M 320 113 L 331 104 L 342 113 L 331 122 L 320 113"/></g><g transform="translate(-6,2) scale(1,1)"><path fill="none" stroke="#000000" d="M 320 113 L 331 104 L 342 113 L 331 122 L 320 113 L 320 113" stroke-miterlimit="10"/></g><g transform="translate(-6,2) scale(1,1)"><path fill="#C0C0C0" stroke="none" d="M 305 159 L 400.18994140625 159 Q 410.18994140625 159 410.18994140625 169 L 410.18994140625 188 Q 410.18994140625 198 400.18994140625 198 L 305 198 Q 295 198 295 188 L 295 169 Q 295 159 305 159 Z" opacity="0.2"/></g><g transform="translate(-6,2) scale(1,1)"><path fill="#ffffff" stroke="none" d="M 298 152 L 393.18994140625 152 Q 403.18994140625 152 403.18994140625 162 L 403.18994140625 181 Q 403.18994140625 191 393.18994140625 191 L 298 191 Q 288 191 288 181 L 288 162 Q 288 152 298 152 Z"/></g><g transform="translate(-6,2) scale(1,1)"><path fill="none" stroke="#000000" d="M 298 152 L 393.18994140625 152 Q 403.18994140625 152 403.18994140625 162 L 403.18994140625 181 Q 403.18994140625 191 393.18994140625 191 L 298 191 Q 288 191 288 181 L 288 162 Q 288 152 298 152 Z" stroke-miterlimit="10"/></g><g transform="translate(-6,2) scale(1,1)"><g><path fill="none" stroke="none"/><text fill="#000000" stroke="none" font-family="Arial" font-size="13px" font-style="normal" font-weight="bold" text-decoration="none" x="292.5" y="169.5">transaction_form</text></g></g><g transform="translate(-6,2) scale(1,1)"><path fill="none" stroke="#000000" d="M 334 79 L 334 104" stroke-miterlimit="10"/></g><g transform="translate(-6,2) scale(1,1)"><path fill="none" stroke="#000000" d="M 329.790482243984 93.83732514237585 L 334 104 L 338.209517756016 93.83732514237585" stroke-miterlimit="10"/></g><g transform="translate(-6,2) scale(1,1)"><g><path fill="none" stroke="none"/><text fill="#000000" stroke="none" font-family="Arial" font-size="13px" font-style="normal" font-weight="normal" text-decoration="none" x="165.5" y="97.5">Membership form is filled in</text></g></g><g transform="translate(-6,2) scale(1,1)"><path fill="none" stroke="#000000" d="M 333 122 L 333 152" stroke-miterlimit="10"/></g><g transform="translate(-6,2) scale(1,1)"><path fill="none" stroke="#000000" d="M 328.790482243984 141.83732514237585 L 333 152 L 337.209517756016 141.83732514237585" stroke-miterlimit="10"/></g><g transform="translate(-6,2) scale(1,1)"><g><path fill="none" stroke="none"/><text fill="#000000" stroke="none" font-family="Arial" font-size="13px" font-style="normal" font-weight="normal" text-decoration="none" x="357.22998046875" y="138.5">Membership for correct</text></g></g><g transform="translate(-6,2) scale(1,1)"><path fill="none" stroke="#000000" d="M 342 104 L 504 104 L 504 64 L 410 64" stroke-miterlimit="10"/></g><g transform="translate(-6,2) scale(1,1)"><path fill="none" stroke="#000000" d="M 420.16267485762415 59.790482243984016 L 410 64 L 420.16267485762415 68.20951775601598" stroke-miterlimit="10"/></g><g transform="translate(-6,2) scale(1,1)"><g><path fill="none" stroke="none"/><text fill="#000000" stroke="none" font-family="Arial" font-size="13px" font-style="normal" font-weight="normal" text-decoration="none" x="421.5" y="58.5">Transaction form not correct</text></g></g><g transform="translate(-6,2) scale(1,1)"><path fill="#C0C0C0" stroke="none" d="M 335 248.5 L 346.5 239 L 357 248.5 L 346.5 257 L 335 248.5" opacity="0.2"/></g><g transform="translate(-6,2) scale(1,1)"><path fill="#ffffff" stroke="none" d="M 328 241 L 339 232 L 350 241 L 339 250 L 328 241"/></g><g transform="translate(-6,2) scale(1,1)"><path fill="none" stroke="#000000" d="M 328 241 L 339 232 L 350 241 L 339 250 L 328 241 L 328 241" stroke-miterlimit="10"/></g><g transform="translate(-6,2) scale(1,1)"><path fill="none" stroke="#000000" d="M 343 191 L 343 232" stroke-miterlimit="10"/></g><g transform="translate(-6,2) scale(1,1)"><path fill="none" stroke="#000000" d="M 338.790482243984 221.83732514237585 L 343 232 L 347.209517756016 221.83732514237585" stroke-miterlimit="10"/></g><g transform="translate(-6,2) scale(1,1)"><g><path fill="none" stroke="none"/><text fill="#000000" stroke="none" font-family="Arial" font-size="13px" font-style="normal" font-weight="normal" text-decoration="none" x="173.5" y="217.5">Transaction Form is filled in</text></g></g><g transform="translate(-6,2) scale(1,1)"><path fill="none" stroke="#000000" d="M 350 232 L 504 232 L 504 168 L 403 168" stroke-miterlimit="10"/></g><g transform="translate(-6,2) scale(1,1)"><path fill="none" stroke="#000000" d="M 413.16267485762415 163.790482243984 L 403 168 L 413.16267485762415 172.209517756016" stroke-miterlimit="10"/></g><g transform="translate(-6,2) scale(1,1)"><g><path fill="none" stroke="none"/><text fill="#000000" stroke="none" font-family="Arial" font-size="13px" font-style="normal" font-weight="normal" text-decoration="none" x="367.5" y="250.5">Transaction form is not correct</text></g></g><g transform="translate(-6,2) scale(1,1)"><path fill="#C0C0C0" stroke="none" d="M 321 311 L 382.24267578125 311 Q 392.24267578125 311 392.24267578125 321 L 392.24267578125 340 Q 392.24267578125 350 382.24267578125 350 L 321 350 Q 311 350 311 340 L 311 321 Q 311 311 321 311 Z" opacity="0.2"/></g><g transform="translate(-6,2) scale(1,1)"><path fill="#ffffff" stroke="none" d="M 314 304 L 375.24267578125 304 Q 385.24267578125 304 385.24267578125 314 L 385.24267578125 333 Q 385.24267578125 343 375.24267578125 343 L 314 343 Q 304 343 304 333 L 304 314 Q 304 304 314 304 Z"/></g><g transform="translate(-6,2) scale(1,1)"><path fill="none" stroke="#000000" d="M 314 304 L 375.24267578125 304 Q 385.24267578125 304 385.24267578125 314 L 385.24267578125 333 Q 385.24267578125 343 375.24267578125 343 L 314 343 Q 304 343 304 333 L 304 314 Q 304 304 314 304 Z" stroke-miterlimit="10"/></g><g transform="translate(-6,2) scale(1,1)"><g><path fill="none" stroke="none"/><text fill="#000000" stroke="none" font-family="Arial" font-size="13px" font-style="normal" font-weight="bold" text-decoration="none" x="308.5" y="321.5">home_page</text></g></g><g transform="translate(-6,2) scale(1,1)"><path fill="none" stroke="#000000" d="M 340 250 L 340 304" stroke-miterlimit="10"/></g><g transform="translate(-6,2) scale(1,1)"><path fill="none" stroke="#000000" d="M 335.790482243984 293.83732514237585 L 340 304 L 344.209517756016 293.83732514237585" stroke-miterlimit="10"/></g><g transform="translate(-6,2) scale(1,1)"><g><path fill="none" stroke="none"/><text fill="#000000" stroke="none" font-family="Arial" font-size="13px" font-style="normal" font-weight="normal" text-decoration="none" x="269.5" y="275.5">Redirect</text></g></g><g transform="translate(-6,2) scale(1,1)"><path fill="#C0C0C0" stroke="none" d="M 335 403.5 C 335 396.59644 340.59644 391 347.5 391 C 354.40356 391 360 396.59644 360 403.5 C 360 410.40356 354.40356 416 347.5 416 C 340.59644 416 335 410.40356 335 403.5 Z" opacity="0.2"/></g><g transform="translate(-6,2) scale(1,1)"><path fill="none" stroke="#000000" d="M 328 396.5 C 328 389.59644 333.59644 384 340.5 384 C 347.40356 384 353 389.59644 353 396.5 C 353 403.40356 347.40356 409 340.5 409 C 333.59644 409 328 403.40356 328 396.5 Z" stroke-miterlimit="10"/></g><g transform="translate(-6,2) scale(1,1)"><path fill="#000000" stroke="none" d="M 333 396.5 C 333 392.357864 336.357864 389 340.5 389 C 344.642136 389 348 392.357864 348 396.5 C 348 400.642136 344.642136 404 340.5 404 C 336.357864 404 333 400.642136 333 396.5 Z"/></g><g transform="translate(-6,2) scale(1,1)"><path fill="none" stroke="#000000" d="M 343 343 L 343 384" stroke-miterlimit="10"/></g><g transform="translate(-6,2) scale(1,1)"><path fill="none" stroke="#000000" d="M 338.790482243984 373.83732514237585 L 343 384 L 347.209517756016 373.83732514237585" stroke-miterlimit="10"/></g></g></svg>