<svg version="1.1" xmlns="http://www.w3.org/2000/svg" xmlns:xlink="http://www.w3.org/1999/xlink" width="486.5107421875" height="335"><defs/><g><text fill="#eeeeee" stroke="none" font-family="Arial" font-size="24px" font-style="normal" font-weight="normal" text-decoration="none" x="0" y="0">UNREGISTERED</text><text fill="#eeeeee" stroke="none" font-family="Arial" font-size="24px" font-style="normal" font-weight="normal" text-decoration="none" x="0" y="30">UNREGISTERED</text><text fill="#eeeeee" stroke="none" font-family="Arial" font-size="24px" font-style="normal" font-weight="normal" text-decoration="none" x="0" y="60">UNREGISTERED</text><text fill="#eeeeee" stroke="none" font-family="Arial" font-size="24px" font-style="normal" font-weight="normal" text-decoration="none" x="0" y="90">UNREGISTERED</text><text fill="#eeeeee" stroke="none" font-family="Arial" font-size="24px" font-style="normal" font-weight="normal" text-decoration="none" x="0" y="120">UNREGISTERED</text><text fill="#eeeeee" stroke="none" font-family="Arial" font-size="24px" font-style="normal" font-weight="normal" text-decoration="none" x="0" y="150">UNREGISTERED</text><text fill="#eeeeee" stroke="none" font-family="Arial" font-size="24px" font-style="normal" font-weight="normal" text-decoration="none" x="0" y="180">UNREGISTERED</text><text fill="#eeeeee" stroke="none" font-family="Arial" font-size="24px" font-style="normal" font-weight="normal" text-decoration="none" x="0" y="210">UNREGISTERED</text><text fill="#eeeeee" stroke="none" font-family="Arial" font-size="24px" font-style="normal" font-weight="normal" text-decoration="none" x="0" y="240">UNREGISTERED</text><text fill="#eeeeee" stroke="none" font-family="Arial" font-size="24px" font-style="normal" font-weight="normal" text-decoration="none" x="0" y="270">UNREGISTERED</text><text fill="#eeeeee" stroke="none" font-family="Arial" font-size="24px" font-style="normal" font-weight="normal" text-decoration="none" x="0" y="300">UNREGISTERED</text><text fill="#eeeeee" stroke="none" font-family="Arial" font-size="24px" font-style="normal" font-weight="normal" text-decoration="none" x="0" y="330">UNREGISTERED</text><text fill="#eeeeee" stroke="none" font-family="Arial" font-size="24px" font-style="normal" font-weight="normal" text-decoration="none" x="200" y="0">UNREGISTERED</text><text fill="#eeeeee" stroke="none" font-family="Arial" font-size="24px" font-style="normal" font-weight="normal" text-decoration="none" x="200" y="30">UNREGISTERED</text><text fill="#eeeeee" stroke="none" font-family="Arial" font-size="24px" font-style="normal" font-weight="normal" text-decoration="none" x="200" y="60">UNREGISTERED</text><text fill="#eeeeee" stroke="none" font-family="Arial" font-size="24px" font-style="normal" font-weight="normal" text-decoration="none" x="200" y="90">UNREGISTERED</text><text fill="#eeeeee" stroke="none" font-family="Arial" font-size="24px" font-style="normal" font-weight="normal" text-decoration="none" x="200" y="120">UNREGISTERED</text><text fill="#eeeeee" stroke="none" font-family="Arial" font-size="24px" font-style="normal" font-weight="normal" text-decoration="none" x="200" y="150">UNREGISTERED</text><text fill="#eeeeee" stroke="none" font-family="Arial" font-size="24px" font-style="normal" font-weight="normal" text-decoration="none" x="200" y="180">UNREGISTERED</text><text fill="#eeeeee" stroke="none" font-family="Arial" font-size="24px" font-style="normal" font-weight="normal" text-decoration="none" x="200" y="210">UNREGISTERED</text><text fill="#eeeeee" stroke="none" font-family="Arial" font-size="24px" font-style="normal" font-weight="normal" text-decoration="none" x="200" y="240">UNREGISTERED</text><text fill="#eeeeee" stroke="none" font-family="Arial" font-size="24px" font-style="normal" font-weight="normal" text-decoration="none" x="200" y="270">UNREGISTERED</text><text fill="#eeeeee" stroke="none" font-family="Arial" font-size="24px" font-style="normal" font-weight="normal" text-decoration="none" x="200" y="300">UNREGISTERED</text><text fill="#eeeeee" stroke="none" font-family="Arial" font-size="24px" font-style="normal" font-weight="normal" text-decoration="none" x="200" y="330">UNREGISTERED</text><text fill="#eeeeee" stroke="none" font-family="Arial" font-size="24px" font-style="normal" font-weight="normal" text-decoration="none" x="400" y="0">UNREGISTERED</text><text fill="#eeeeee" stroke="none" font-family="Arial" font-size="24px" font-style="normal" font-weight="normal" text-decoration="none" x="400" y="30">UNREGISTERED</text><text fill="#eeeeee" stroke="none" font-family="Arial" font-size="24px" font-style="normal" font-weight="normal" text-decoration="none" x="400" y="60">UNREGISTERED</text><text fill="#eeeeee" stroke="none" font-family="Arial" font-size="24px" font-style="normal" font-weight="normal" text-decoration="none" x="400" y="90">UNREGISTERED</text><text fill="#eeeeee" stroke="none" font-family="Arial" font-size="24px" font-style="normal" font-weight="normal" text-decoration="none" x="400" y="120">UNREGISTERED</text><text fill="#eeeeee" stroke="none" font-family="Arial" font-size="24px" font-style="normal" font-weight="normal" text-decoration="none" x="400" y="150">UNREGISTERED</text><text fill="#eeeeee" stroke="none" font-family="Arial" font-size="24px" font-style="normal" font-weight="normal" text-decoration="none" x="400" y="180">UNREGISTERED</text><text fill="#eeeeee" stroke="none" font-family="Arial" font-size="24px" font-style="normal" font-weight="normal" text-decoration="none" x="400" y="210">UNREGISTERED</text><text fill="#eeeeee" stroke="none" font-family="Arial" font-size="24px" font-style="normal" font-weight="normal" text-decoration="none" x="400" y="240">UNREGISTERED</text><text fill="#eeeeee" stroke="none" font-family="Arial" font-size="24px" font-style="normal" font-weight="normal" text-decoration="none" x="400" y="270">UNREGISTERED</text><text fill="#eeeeee" stroke="none" font-family="Arial" font-size="24px" font-style="normal" font-weight="normal" text-decoration="none" x="400" y="300">UNREGISTERED</text><text fill="#eeeeee" stroke="none" font-family="Arial" font-size="24px" font-style="normal" font-weight="normal" text-decoration="none" x="400" y="330">UNREGISTERED</text><g transform="translate(-14,10) scale(1,1)"><path fill="#C0C0C0" stroke="none" d="M 39 40.5 C 39 35.2532944 43.2532944 31 48.5 31 C 53.7467056 31 58 35.2532944 58 40.5 C 58 45.7467056 53.7467056 50 48.5 50 C 43.2532944 50 39 45.7467056 39 40.5 Z" opacity="0.2"/></g><g transform="translate(-14,10) scale(1,1)"><path fill="#000000" stroke="none" d="M 32 33.5 C 32 28.2532944 36.2532944 24 41.5 24 C 46.7467056 24 51 28.2532944 51 33.5 C 51 38.7467056 46.7467056 43 41.5 43 C 36.2532944 43 32 38.7467056 32 33.5 Z"/></g><g transform="translate(-14,10) scale(1,1)"><path fill="#C0C0C0" stroke="none" d="M 441 309.5 C 441 302.59644 446.59644 297 453.5 297 C 460.40356 297 466 302.59644 466 309.5 C 466 316.40356 460.40356 322 453.5 322 C 446.59644 322 441 316.40356 441 309.5 Z" opacity="0.2"/></g><g transform="translate(-14,10) scale(1,1)"><path fill="none" stroke="#000000" d="M 434 302.5 C 434 295.59644 439.59644 290 446.5 290 C 453.40356 290 459 295.59644 459 302.5 C 459 309.40356 453.40356 315 446.5 315 C 439.59644 315 434 309.40356 434 302.5 Z" stroke-miterlimit="10"/></g><g transform="translate(-14,10) scale(1,1)"><path fill="#000000" stroke="none" d="M 439 302.5 C 439 298.357864 442.357864 295 446.5 295 C 450.642136 295 454 298.357864 454 302.5 C 454 306.642136 450.642136 310 446.5 310 C 442.357864 310 439 306.642136 439 302.5 Z"/></g><g transform="translate(-14,10) scale(1,1)"><path fill="#C0C0C0" stroke="none" d="M 137 23 L 194.62451171875 23 Q 204.62451171875 23 204.62451171875 33 L 204.62451171875 52 Q 204.62451171875 62 194.62451171875 62 L 137 62 Q 127 62 127 52 L 127 33 Q 127 23 137 23 Z" opacity="0.2"/></g><g transform="translate(-14,10) scale(1,1)"><path fill="#ffffff" stroke="none" d="M 130 16 L 187.62451171875 16 Q 197.62451171875 16 197.62451171875 26 L 197.62451171875 45 Q 197.62451171875 55 187.62451171875 55 L 130 55 Q 120 55 120 45 L 120 26 Q 120 16 130 16 Z"/></g><g transform="translate(-14,10) scale(1,1)"><path fill="none" stroke="#000000" d="M 130 16 L 187.62451171875 16 Q 197.62451171875 16 197.62451171875 26 L 197.62451171875 45 Q 197.62451171875 55 187.62451171875 55 L 130 55 Q 120 55 120 45 L 120 26 Q 120 16 130 16 Z" stroke-miterlimit="10"/></g><g transform="translate(-14,10) scale(1,1)"><g><path fill="none" stroke="none"/><text fill="#000000" stroke="none" font-family="Arial" font-size="13px" font-style="normal" font-weight="bold" text-decoration="none" x="124.5" y="33.5">shop_page</text></g></g><g transform="translate(-14,10) scale(1,1)"><path fill="none" stroke="#000000" d="M 51 32 L 120 32" stroke-miterlimit="10"/></g><g transform="translate(-14,10) scale(1,1)"><path fill="none" stroke="#000000" d="M 109.83732514237585 36.20951775601599 L 120 32 L 109.83732514237585 27.790482243984012" stroke-miterlimit="10"/></g><g transform="translate(-14,10) scale(1,1)"><g><path fill="none" stroke="none"/><text fill="#000000" stroke="none" font-family="Arial" font-size="13px" font-style="normal" font-weight="normal" text-decoration="none" x="23.5" y="10.5">Shop Button is clicked</text></g></g><g transform="translate(-14,10) scale(1,1)"><path fill="#C0C0C0" stroke="none" d="M 289 31 L 386.3544921875 31 Q 396.3544921875 31 396.3544921875 41 L 396.3544921875 60 Q 396.3544921875 70 386.3544921875 70 L 289 70 Q 279 70 279 60 L 279 41 Q 279 31 289 31 Z" opacity="0.2"/></g><g transform="translate(-14,10) scale(1,1)"><path fill="#ffffff" stroke="none" d="M 282 24 L 379.3544921875 24 Q 389.3544921875 24 389.3544921875 34 L 389.3544921875 53 Q 389.3544921875 63 379.3544921875 63 L 282 63 Q 272 63 272 53 L 272 34 Q 272 24 282 24 Z"/></g><g transform="translate(-14,10) scale(1,1)"><path fill="none" stroke="#000000" d="M 282 24 L 379.3544921875 24 Q 389.3544921875 24 389.3544921875 34 L 389.3544921875 53 Q 389.3544921875 63 379.3544921875 63 L 282 63 Q 272 63 272 53 L 272 34 Q 272 24 282 24 Z" stroke-miterlimit="10"/></g><g transform="translate(-14,10) scale(1,1)"><g><path fill="none" stroke="none"/><text fill="#000000" stroke="none" font-family="Arial" font-size="13px" font-style="normal" font-weight="bold" text-decoration="none" x="276.5" y="41.5">choose_products</text></g></g><g transform="translate(-14,10) scale(1,1)"><path fill="none" stroke="#000000" d="M 198 40 L 272 40" stroke-miterlimit="10"/></g><g transform="translate(-14,10) scale(1,1)"><path fill="none" stroke="#000000" d="M 261.83732514237585 44.20951775601599 L 272 40 L 261.83732514237585 35.790482243984016" stroke-miterlimit="10"/></g><g transform="translate(-14,10) scale(1,1)"><g><path fill="none" stroke="none"/><text fill="#000000" stroke="none" font-family="Arial" font-size="13px" font-style="normal" font-weight="normal" text-decoration="none" x="197.5" y="19.5">Choose Products</text></g></g><g transform="translate(-14,10) scale(1,1)"><path fill="#C0C0C0" stroke="none" d="M 326 128.5 L 337.5 119 L 348 128.5 L 337.5 137 L 326 128.5" opacity="0.2"/></g><g transform="translate(-14,10) scale(1,1)"><path fill="#ffffff" stroke="none" d="M 319 121 L 330 112 L 341 121 L 330 130 L 319 121"/></g><g transform="translate(-14,10) scale(1,1)"><path fill="none" stroke="#000000" d="M 319 121 L 330 112 L 341 121 L 330 130 L 319 121 L 319 121" stroke-miterlimit="10"/></g><g transform="translate(-14,10) scale(1,1)"><path fill="none" stroke="#000000" d="M 341 118 L 440 118 L 440 40 L 389 40" stroke-miterlimit="10"/></g><g transform="translate(-14,10) scale(1,1)"><path fill="none" stroke="#000000" d="M 399.16267485762415 35.790482243984016 L 389 40 L 399.16267485762415 44.209517756015984" stroke-miterlimit="10"/></g><g transform="translate(-14,10) scale(1,1)"><g><path fill="none" stroke="none"/><text fill="#000000" stroke="none" font-family="Arial" font-size="13px" font-style="normal" font-weight="normal" text-decoration="none" x="359.5" y="138.5">Choose more products</text></g></g><g transform="translate(-14,10) scale(1,1)"><path fill="none" stroke="#000000" d="M 330 63 L 330 112" stroke-miterlimit="10"/></g><g transform="translate(-14,10) scale(1,1)"><path fill="none" stroke="#000000" d="M 325.790482243984 101.83732514237585 L 330 112 L 334.209517756016 101.83732514237585" stroke-miterlimit="10"/></g><g transform="translate(-14,10) scale(1,1)"><g><path fill="none" stroke="none"/><text fill="#000000" stroke="none" font-family="Arial" font-size="13px" font-style="normal" font-weight="normal" text-decoration="none" x="169.5" y="97.5">Proceed button clicked ?</text></g></g><g transform="translate(-14,10) scale(1,1)"><path fill="#C0C0C0" stroke="none" d="M 281 191 L 377.630859375 191 Q 387.630859375 191 387.630859375 201 L 387.630859375 220 Q 387.630859375 230 377.630859375 230 L 281 230 Q 271 230 271 220 L 271 201 Q 271 191 281 191 Z" opacity="0.2"/></g><g transform="translate(-14,10) scale(1,1)"><path fill="#ffffff" stroke="none" d="M 274 184 L 370.630859375 184 Q 380.630859375 184 380.630859375 194 L 380.630859375 213 Q 380.630859375 223 370.630859375 223 L 274 223 Q 264 223 264 213 L 264 194 Q 264 184 274 184 Z"/></g><g transform="translate(-14,10) scale(1,1)"><path fill="none" stroke="#000000" d="M 274 184 L 370.630859375 184 Q 380.630859375 184 380.630859375 194 L 380.630859375 213 Q 380.630859375 223 370.630859375 223 L 274 223 Q 264 223 264 213 L 264 194 Q 264 184 274 184 Z" stroke-miterlimit="10"/></g><g transform="translate(-14,10) scale(1,1)"><g><path fill="none" stroke="none"/><text fill="#000000" stroke="none" font-family="Arial" font-size="13px" font-style="normal" font-weight="bold" text-decoration="none" x="268.5" y="201.5">payment_method</text></g></g><g transform="translate(-14,10) scale(1,1)"><path fill="none" stroke="#000000" d="M 329 130 L 329 184" stroke-miterlimit="10"/></g><g transform="translate(-14,10) scale(1,1)"><path fill="none" stroke="#000000" d="M 324.790482243984 173.83732514237585 L 329 184 L 333.209517756016 173.83732514237585" stroke-miterlimit="10"/></g><g transform="translate(-14,10) scale(1,1)"><g><path fill="none" stroke="none"/><text fill="#000000" stroke="none" font-family="Arial" font-size="13px" font-style="normal" font-weight="normal" text-decoration="none" x="209.5" y="166.5">Proceed to payment</text></g></g><g transform="translate(-14,10) scale(1,1)"><path fill="#C0C0C0" stroke="none" d="M 311 288.5 L 322.5 279 L 333 288.5 L 322.5 297 L 311 288.5" opacity="0.2"/></g><g transform="translate(-14,10) scale(1,1)"><path fill="#ffffff" stroke="none" d="M 304 281 L 315 272 L 326 281 L 315 290 L 304 281"/></g><g transform="translate(-14,10) scale(1,1)"><path fill="none" stroke="#000000" d="M 304 281 L 315 272 L 326 281 L 315 290 L 304 281 L 304 281" stroke-miterlimit="10"/></g><g transform="translate(-14,10) scale(1,1)"><path fill="none" stroke="#000000" d="M 312 223 L 312 272" stroke-miterlimit="10"/></g><g transform="translate(-14,10) scale(1,1)"><path fill="none" stroke="#000000" d="M 307.790482243984 261.83732514237585 L 312 272 L 316.209517756016 261.83732514237585" stroke-miterlimit="10"/></g><g transform="translate(-14,10) scale(1,1)"><g><path fill="none" stroke="none"/><text fill="#000000" stroke="none" font-family="Arial" font-size="13px" font-style="normal" font-weight="normal" text-decoration="none" x="240.5" y="256.5">Proceed  ?</text></g></g><g transform="translate(-14,10) scale(1,1)"><path fill="none" stroke="#000000" d="M 326 280 L 424 280 L 424 208 L 381 208" stroke-miterlimit="10"/></g><g transform="translate(-14,10) scale(1,1)"><path fill="none" stroke="#000000" d="M 391.16267485762415 203.790482243984 L 381 208 L 391.16267485762415 212.209517756016" stroke-miterlimit="10"/></g><g transform="translate(-14,10) scale(1,1)"><g><path fill="none" stroke="none"/><text fill="#000000" stroke="none" font-family="Arial" font-size="13px" font-style="normal" font-weight="normal" text-decoration="none" x="358.5" y="268.5">Redirect</text></g></g><g transform="translate(-14,10) scale(1,1)"><path fill="none" stroke="#000000" d="M 315 290 L 315 300 L 434 300" stroke-miterlimit="10"/></g><g transform="translate(-14,10) scale(1,1)"><path fill="none" stroke="#000000" d="M 423.83732514237585 304.209517756016 L 434 300 L 423.83732514237585 295.790482243984" stroke-miterlimit="10"/></g></g></svg>