<svg version="1.1" xmlns="http://www.w3.org/2000/svg" xmlns:xlink="http://www.w3.org/1999/xlink" width="569.12255859375" height="429"><defs/><g><text fill="#eeeeee" stroke="none" font-family="Arial" font-size="24px" font-style="normal" font-weight="normal" text-decoration="none" x="0" y="0">UNREGISTERED</text><text fill="#eeeeee" stroke="none" font-family="Arial" font-size="24px" font-style="normal" font-weight="normal" text-decoration="none" x="0" y="30">UNREGISTERED</text><text fill="#eeeeee" stroke="none" font-family="Arial" font-size="24px" font-style="normal" font-weight="normal" text-decoration="none" x="0" y="60">UNREGISTERED</text><text fill="#eeeeee" stroke="none" font-family="Arial" font-size="24px" font-style="normal" font-weight="normal" text-decoration="none" x="0" y="90">UNREGISTERED</text><text fill="#eeeeee" stroke="none" font-family="Arial" font-size="24px" font-style="normal" font-weight="normal" text-decoration="none" x="0" y="120">UNREGISTERED</text><text fill="#eeeeee" stroke="none" font-family="Arial" font-size="24px" font-style="normal" font-weight="normal" text-decoration="none" x="0" y="150">UNREGISTERED</text><text fill="#eeeeee" stroke="none" font-family="Arial" font-size="24px" font-style="normal" font-weight="normal" text-decoration="none" x="0" y="180">UNREGISTERED</text><text fill="#eeeeee" stroke="none" font-family="Arial" font-size="24px" font-style="normal" font-weight="normal" text-decoration="none" x="0" y="210">UNREGISTERED</text><text fill="#eeeeee" stroke="none" font-family="Arial" font-size="24px" font-style="normal" font-weight="normal" text-decoration="none" x="0" y="240">UNREGISTERED</text><text fill="#eeeeee" stroke="none" font-family="Arial" font-size="24px" font-style="normal" font-weight="normal" text-decoration="none" x="0" y="270">UNREGISTERED</text><text fill="#eeeeee" stroke="none" font-family="Arial" font-size="24px" font-style="normal" font-weight="normal" text-decoration="none" x="0" y="300">UNREGISTERED</text><text fill="#eeeeee" stroke="none" font-family="Arial" font-size="24px" font-style="normal" font-weight="normal" text-decoration="none" x="0" y="330">UNREGISTERED</text><text fill="#eeeeee" stroke="none" font-family="Arial" font-size="24px" font-style="normal" font-weight="normal" text-decoration="none" x="0" y="360">UNREGISTERED</text><text fill="#eeeeee" stroke="none" font-family="Arial" font-size="24px" font-style="normal" font-weight="normal" text-decoration="none" x="0" y="390">UNREGISTERED</text><text fill="#eeeeee" stroke="none" font-family="Arial" font-size="24px" font-style="normal" font-weight="normal" text-decoration="none" x="0" y="420">UNREGISTERED</text><text fill="#eeeeee" stroke="none" font-family="Arial" font-size="24px" font-style="normal" font-weight="normal" text-decoration="none" x="200" y="0">UNREGISTERED</text><text fill="#eeeeee" stroke="none" font-family="Arial" font-size="24px" font-style="normal" font-weight="normal" text-decoration="none" x="200" y="30">UNREGISTERED</text><text fill="#eeeeee" stroke="none" font-family="Arial" font-size="24px" font-style="normal" font-weight="normal" text-decoration="none" x="200" y="60">UNREGISTERED</text><text fill="#eeeeee" stroke="none" font-family="Arial" font-size="24px" font-style="normal" font-weight="normal" text-decoration="none" x="200" y="90">UNREGISTERED</text><text fill="#eeeeee" stroke="none" font-family="Arial" font-size="24px" font-style="normal" font-weight="normal" text-decoration="none" x="200" y="120">UNREGISTERED</text><text fill="#eeeeee" stroke="none" font-family="Arial" font-size="24px" font-style="normal" font-weight="normal" text-decoration="none" x="200" y="150">UNREGISTERED</text><text fill="#eeeeee" stroke="none" font-family="Arial" font-size="24px" font-style="normal" font-weight="normal" text-decoration="none" x="200" y="180">UNREGISTERED</text><text fill="#eeeeee" stroke="none" font-family="Arial" font-size="24px" font-style="normal" font-weight="normal" text-decoration="none" x="200" y="210">UNREGISTERED</text><text fill="#eeeeee" stroke="none" font-family="Arial" font-size="24px" font-style="normal" font-weight="normal" text-decoration="none" x="200" y="240">UNREGISTERED</text><text fill="#eeeeee" stroke="none" font-family="Arial" font-size="24px" font-style="normal" font-weight="normal" text-decoration="none" x="200" y="270">UNREGISTERED</text><text fill="#eeeeee" stroke="none" font-family="Arial" font-size="24px" font-style="normal" font-weight="normal" text-decoration="none" x="200" y="300">UNREGISTERED</text><text fill="#eeeeee" stroke="none" font-family="Arial" font-size="24px" font-style="normal" font-weight="normal" text-decoration="none" x="200" y="330">UNREGISTERED</text><text fill="#eeeeee" stroke="none" font-family="Arial" font-size="24px" font-style="normal" font-weight="normal" text-decoration="none" x="200" y="360">UNREGISTERED</text><text fill="#eeeeee" stroke="none" font-family="Arial" font-size="24px" font-style="normal" font-weight="normal" text-decoration="none" x="200" y="390">UNREGISTERED</text><text fill="#eeeeee" stroke="none" font-family="Arial" font-size="24px" font-style="normal" font-weight="normal" text-decoration="none" x="200" y="420">UNREGISTERED</text><text fill="#eeeeee" stroke="none" font-family="Arial" font-size="24px" font-style="normal" font-weight="normal" text-decoration="none" x="400" y="0">UNREGISTERED</text><text fill="#eeeeee" stroke="none" font-family="Arial" font-size="24px" font-style="normal" font-weight="normal" text-decoration="none" x="400" y="30">UNREGISTERED</text><text fill="#eeeeee" stroke="none" font-family="Arial" font-size="24px" font-style="normal" font-weight="normal" text-decoration="none" x="400" y="60">UNREGISTERED</text><text fill="#eeeeee" stroke="none" font-family="Arial" font-size="24px" font-style="normal" font-weight="normal" text-decoration="none" x="400" y="90">UNREGISTERED</text><text fill="#eeeeee" stroke="none" font-family="Arial" font-size="24px" font-style="normal" font-weight="normal" text-decoration="none" x="400" y="120">UNREGISTERED</text><text fill="#eeeeee" stroke="none" font-family="Arial" font-size="24px" font-style="normal" font-weight="normal" text-decoration="none" x="400" y="150">UNREGISTERED</text><text fill="#eeeeee" stroke="none" font-family="Arial" font-size="24px" font-style="normal" font-weight="normal" text-decoration="none" x="400" y="180">UNREGISTERED</text><text fill="#eeeeee" stroke="none" font-family="Arial" font-size="24px" font-style="normal" font-weight="normal" text-decoration="none" x="400" y="210">UNREGISTERED</text><text fill="#eeeeee" stroke="none" font-family="Arial" font-size="24px" font-style="normal" font-weight="normal" text-decoration="none" x="400" y="240">UNREGISTERED</text><text fill="#eeeeee" stroke="none" font-family="Arial" font-size="24px" font-style="normal" font-weight="normal" text-decoration="none" x="400" y="270">UNREGISTERED</text><text fill="#eeeeee" stroke="none" font-family="Arial" font-size="24px" font-style="normal" font-weight="normal" text-decoration="none" x="400" y="300">UNREGISTERED</text><text fill="#eeeeee" stroke="none" font-family="Arial" font-size="24px" font-style="normal" font-weight="normal" text-decoration="none" x="400" y="330">UNREGISTERED</text><text fill="#eeeeee" stroke="none" font-family="Arial" font-size="24px" font-style="normal" font-weight="normal" text-decoration="none" x="400" y="360">UNREGISTERED</text><text fill="#eeeeee" stroke="none" font-family="Arial" font-size="24px" font-style="normal" font-weight="normal" text-decoration="none" x="400" y="390">UNREGISTERED</text><text fill="#eeeeee" stroke="none" font-family="Arial" font-size="24px" font-style="normal" font-weight="normal" text-decoration="none" x="400" y="420">UNREGISTERED</text><g transform="translate(-6,2) scale(1,1)"><path fill="#C0C0C0" stroke="none" d="M 23 48.5 C 23 43.2532944 27.2532944 39 32.5 39 C 37.7467056 39 42 43.2532944 42 48.5 C 42 53.7467056 37.7467056 58 32.5 58 C 27.2532944 58 23 53.7467056 23 48.5 Z" opacity="0.2"/></g><g transform="translate(-6,2) scale(1,1)"><path fill="#000000" stroke="none" d="M 16 41.5 C 16 36.2532944 20.2532944 32 25.5 32 C 30.7467056 32 35 36.2532944 35 41.5 C 35 46.7467056 30.7467056 51 25.5 51 C 20.2532944 51 16 46.7467056 16 41.5 Z"/></g><g transform="translate(-6,2) scale(1,1)"><path fill="#C0C0C0" stroke="none" d="M 439 411.5 C 439 404.59644 444.59644 399 451.5 399 C 458.40356 399 464 404.59644 464 411.5 C 464 418.40356 458.40356 424 451.5 424 C 444.59644 424 439 418.40356 439 411.5 Z" opacity="0.2"/></g><g transform="translate(-6,2) scale(1,1)"><path fill="none" stroke="#000000" d="M 432 404.5 C 432 397.59644 437.59644 392 444.5 392 C 451.40356 392 457 397.59644 457 404.5 C 457 411.40356 451.40356 417 444.5 417 C 437.59644 417 432 411.40356 432 404.5 Z" stroke-miterlimit="10"/></g><g transform="translate(-6,2) scale(1,1)"><path fill="#000000" stroke="none" d="M 437 404.5 C 437 400.357864 440.357864 397 444.5 397 C 448.642136 397 452 400.357864 452 404.5 C 452 408.642136 448.642136 412 444.5 412 C 440.357864 412 437 408.642136 437 404.5 Z"/></g><g transform="translate(-6,2) scale(1,1)"><path fill="#C0C0C0" stroke="none" d="M 137 31 L 176 31 Q 186 31 186 41 L 186 60 Q 186 70 176 70 L 137 70 Q 127 70 127 60 L 127 41 Q 127 31 137 31 Z" opacity="0.2"/></g><g transform="translate(-6,2) scale(1,1)"><path fill="#ffffff" stroke="none" d="M 130 24 L 169 24 Q 179 24 179 34 L 179 53 Q 179 63 169 63 L 130 63 Q 120 63 120 53 L 120 34 Q 120 24 130 24 Z"/></g><g transform="translate(-6,2) scale(1,1)"><path fill="none" stroke="#000000" d="M 130 24 L 169 24 Q 179 24 179 34 L 179 53 Q 179 63 169 63 L 130 63 Q 120 63 120 53 L 120 34 Q 120 24 130 24 Z" stroke-miterlimit="10"/></g><g transform="translate(-6,2) scale(1,1)"><g><path fill="none" stroke="none"/><text fill="#000000" stroke="none" font-family="Arial" font-size="13px" font-style="normal" font-weight="bold" text-decoration="none" x="124.569580078125" y="41">courses</text></g></g><g transform="translate(-6,2) scale(1,1)"><path fill="none" stroke="#000000" d="M 35 41 L 120 41" stroke-miterlimit="10"/></g><g transform="translate(-6,2) scale(1,1)"><path fill="none" stroke="#000000" d="M 109.83732514237585 45.20951775601599 L 120 41 L 109.83732514237585 36.790482243984016" stroke-miterlimit="10"/></g><g transform="translate(-6,2) scale(1,1)"><g><path fill="none" stroke="none"/><text fill="#000000" stroke="none" font-family="Arial" font-size="13px" font-style="normal" font-weight="normal" text-decoration="none" x="15.5" y="18.5">Review Courses button clicked</text></g></g><g transform="translate(-6,2) scale(1,1)"><path fill="#C0C0C0" stroke="none" d="M 263 72.5 L 274.5 63 L 285 72.5 L 274.5 81 L 263 72.5" opacity="0.2"/></g><g transform="translate(-6,2) scale(1,1)"><path fill="#ffffff" stroke="none" d="M 256 65 L 267 56 L 278 65 L 267 74 L 256 65"/></g><g transform="translate(-6,2) scale(1,1)"><path fill="none" stroke="#000000" d="M 256 65 L 267 56 L 278 65 L 267 74 L 256 65 L 256 65" stroke-miterlimit="10"/></g><g transform="translate(-6,2) scale(1,1)"><path fill="none" stroke="#000000" d="M 179 40 L 264 40 L 264 56" stroke-miterlimit="10"/></g><g transform="translate(-6,2) scale(1,1)"><path fill="none" stroke="#000000" d="M 259.790482243984 45.837325142375846 L 264 56 L 268.209517756016 45.837325142375846" stroke-miterlimit="10"/></g><g transform="translate(-6,2) scale(1,1)"><g><path fill="none" stroke="none"/><text fill="#000000" stroke="none" font-family="Arial" font-size="13px" font-style="normal" font-weight="normal" text-decoration="none" x="222.5" y="34.5">Review options</text></g></g><g transform="translate(-6,2) scale(1,1)"><path fill="#C0C0C0" stroke="none" d="M 249 119 L 288 119 Q 298 119 298 129 L 298 148 Q 298 158 288 158 L 249 158 Q 239 158 239 148 L 239 129 Q 239 119 249 119 Z" opacity="0.2"/></g><g transform="translate(-6,2) scale(1,1)"><path fill="#ffffff" stroke="none" d="M 242 112 L 281 112 Q 291 112 291 122 L 291 141 Q 291 151 281 151 L 242 151 Q 232 151 232 141 L 232 122 Q 232 112 242 112 Z"/></g><g transform="translate(-6,2) scale(1,1)"><path fill="none" stroke="#000000" d="M 242 112 L 281 112 Q 291 112 291 122 L 291 141 Q 291 151 281 151 L 242 151 Q 232 151 232 141 L 232 122 Q 232 112 242 112 Z" stroke-miterlimit="10"/></g><g transform="translate(-6,2) scale(1,1)"><g><path fill="none" stroke="none"/><text fill="#000000" stroke="none" font-family="Arial" font-size="13px" font-style="normal" font-weight="bold" text-decoration="none" x="236.569580078125" y="129">courses</text></g></g><g transform="translate(-6,2) scale(1,1)"><path fill="#C0C0C0" stroke="none" d="M 353 87 L 392 87 Q 402 87 402 97 L 402 116 Q 402 126 392 126 L 353 126 Q 343 126 343 116 L 343 97 Q 343 87 353 87 Z" opacity="0.2"/></g><g transform="translate(-6,2) scale(1,1)"><path fill="#ffffff" stroke="none" d="M 346 80 L 385 80 Q 395 80 395 90 L 395 109 Q 395 119 385 119 L 346 119 Q 336 119 336 109 L 336 90 Q 336 80 346 80 Z"/></g><g transform="translate(-6,2) scale(1,1)"><path fill="none" stroke="#000000" d="M 346 80 L 385 80 Q 395 80 395 90 L 395 109 Q 395 119 385 119 L 346 119 Q 336 119 336 109 L 336 90 Q 336 80 346 80 Z" stroke-miterlimit="10"/></g><g transform="translate(-6,2) scale(1,1)"><g><path fill="none" stroke="none"/><text fill="#000000" stroke="none" font-family="Arial" font-size="13px" font-style="normal" font-weight="bold" text-decoration="none" x="341.655029296875" y="97.5">trainers</text></g></g><g transform="translate(-6,2) scale(1,1)"><path fill="none" stroke="#000000" d="M 264 74 L 264 112" stroke-miterlimit="10"/></g><g transform="translate(-6,2) scale(1,1)"><path fill="none" stroke="#000000" d="M 259.790482243984 101.83732514237585 L 264 112 L 268.209517756016 101.83732514237585" stroke-miterlimit="10"/></g><g transform="translate(-6,2) scale(1,1)"><g><path fill="none" stroke="none"/><text fill="#000000" stroke="none" font-family="Arial" font-size="13px" font-style="normal" font-weight="normal" text-decoration="none" x="158.5" y="89.5">Review Course</text></g></g><g transform="translate(-6,2) scale(1,1)"><path fill="none" stroke="#000000" d="M 278 64 L 360 64 L 360 80" stroke-miterlimit="10"/></g><g transform="translate(-6,2) scale(1,1)"><path fill="none" stroke="#000000" d="M 355.790482243984 69.83732514237585 L 360 80 L 364.209517756016 69.83732514237585" stroke-miterlimit="10"/></g><g transform="translate(-6,2) scale(1,1)"><g><path fill="none" stroke="none"/><text fill="#000000" stroke="none" font-family="Arial" font-size="13px" font-style="normal" font-weight="normal" text-decoration="none" x="302.5" y="57.5">Review Trainer</text></g></g><g transform="translate(-6,2) scale(1,1)"><path fill="#C0C0C0" stroke="none" d="M 321 215 L 417.64990234375 215 Q 427.64990234375 215 427.64990234375 225 L 427.64990234375 244 Q 427.64990234375 254 417.64990234375 254 L 321 254 Q 311 254 311 244 L 311 225 Q 311 215 321 215 Z" opacity="0.2"/></g><g transform="translate(-6,2) scale(1,1)"><path fill="#ffffff" stroke="none" d="M 314 208 L 410.64990234375 208 Q 420.64990234375 208 420.64990234375 218 L 420.64990234375 237 Q 420.64990234375 247 410.64990234375 247 L 314 247 Q 304 247 304 237 L 304 218 Q 304 208 314 208 Z"/></g><g transform="translate(-6,2) scale(1,1)"><path fill="none" stroke="#000000" d="M 314 208 L 410.64990234375 208 Q 420.64990234375 208 420.64990234375 218 L 420.64990234375 237 Q 420.64990234375 247 410.64990234375 247 L 314 247 Q 304 247 304 237 L 304 218 Q 304 208 314 208 Z" stroke-miterlimit="10"/></g><g transform="translate(-6,2) scale(1,1)"><g><path fill="none" stroke="none"/><text fill="#000000" stroke="none" font-family="Arial" font-size="13px" font-style="normal" font-weight="bold" text-decoration="none" x="308.5" y="225.5">sent_to_manager</text></g></g><g transform="translate(-6,2) scale(1,1)"><path fill="#C0C0C0" stroke="none" d="M 346 183 L 409 183 Q 412 183 412 186 L 412 185 Q 412 188 409 188 L 346 188 Q 343 188 343 185 L 343 186 Q 343 183 346 183 Z" opacity="0.2"/></g><g transform="translate(-6,2) scale(1,1)"><path fill="#000000" stroke="none" d="M 339 176 L 402 176 Q 405 176 405 179 L 405 179 Q 405 182 402 182 L 339 182 Q 336 182 336 179 L 336 179 Q 336 176 339 176 Z"/></g><g transform="translate(-6,2) scale(1,1)"><path fill="none" stroke="#000000" d="M 261 151 L 261 178 L 336 178" stroke-miterlimit="10"/></g><g transform="translate(-6,2) scale(1,1)"><path fill="none" stroke="#000000" d="M 325.83732514237585 182.209517756016 L 336 178 L 325.83732514237585 173.790482243984" stroke-miterlimit="10"/></g><g transform="translate(-6,2) scale(1,1)"><path fill="none" stroke="#000000" d="M 358 119 L 358 176" stroke-miterlimit="10"/></g><g transform="translate(-6,2) scale(1,1)"><path fill="none" stroke="#000000" d="M 353.790482243984 165.83732514237585 L 358 176 L 362.209517756016 165.83732514237585" stroke-miterlimit="10"/></g><g transform="translate(-6,2) scale(1,1)"><path fill="none" stroke="#000000" d="M 369 181 L 369 208" stroke-miterlimit="10"/></g><g transform="translate(-6,2) scale(1,1)"><path fill="none" stroke="#000000" d="M 364.790482243984 197.83732514237585 L 369 208 L 373.209517756016 197.83732514237585" stroke-miterlimit="10"/></g><g transform="translate(-6,2) scale(1,1)"><g><path fill="none" stroke="none"/><text fill="#000000" stroke="none" font-family="Arial" font-size="13px" font-style="normal" font-weight="normal" text-decoration="none" x="175.5" y="193.5">Send to manager to review</text></g></g><g transform="translate(-6,2) scale(1,1)"><path fill="#C0C0C0" stroke="none" d="M 303 296.5 L 314.5 287 L 325 296.5 L 314.5 305 L 303 296.5" opacity="0.2"/></g><g transform="translate(-6,2) scale(1,1)"><path fill="#ffffff" stroke="none" d="M 296 289 L 307 280 L 318 289 L 307 298 L 296 289"/></g><g transform="translate(-6,2) scale(1,1)"><path fill="none" stroke="#000000" d="M 296 289 L 307 280 L 318 289 L 307 298 L 296 289 L 296 289" stroke-miterlimit="10"/></g><g transform="translate(-6,2) scale(1,1)"><path fill="#C0C0C0" stroke="none" d="M 217 343 L 361.34619140625 343 Q 371.34619140625 343 371.34619140625 353 L 371.34619140625 372 Q 371.34619140625 382 361.34619140625 382 L 217 382 Q 207 382 207 372 L 207 353 Q 207 343 217 343 Z" opacity="0.2"/></g><g transform="translate(-6,2) scale(1,1)"><path fill="#ffffff" stroke="none" d="M 210 336 L 354.34619140625 336 Q 364.34619140625 336 364.34619140625 346 L 364.34619140625 365 Q 364.34619140625 375 354.34619140625 375 L 210 375 Q 200 375 200 365 L 200 346 Q 200 336 210 336 Z"/></g><g transform="translate(-6,2) scale(1,1)"><path fill="none" stroke="#000000" d="M 210 336 L 354.34619140625 336 Q 364.34619140625 336 364.34619140625 346 L 364.34619140625 365 Q 364.34619140625 375 354.34619140625 375 L 210 375 Q 200 375 200 365 L 200 346 Q 200 336 210 336 Z" stroke-miterlimit="10"/></g><g transform="translate(-6,2) scale(1,1)"><g><path fill="none" stroke="none"/><text fill="#000000" stroke="none" font-family="Arial" font-size="13px" font-style="normal" font-weight="bold" text-decoration="none" x="204.5" y="353.5">post_on_course_reviews</text></g></g><g transform="translate(-6,2) scale(1,1)"><path fill="none" stroke="#000000" d="M 310 298 L 310 336" stroke-miterlimit="10"/></g><g transform="translate(-6,2) scale(1,1)"><path fill="none" stroke="#000000" d="M 305.790482243984 325.83732514237585 L 310 336 L 314.209517756016 325.83732514237585" stroke-miterlimit="10"/></g><g transform="translate(-6,2) scale(1,1)"><g><path fill="none" stroke="none"/><text fill="#000000" stroke="none" font-family="Arial" font-size="13px" font-style="normal" font-weight="normal" text-decoration="none" x="246.5" y="321.5">Approved</text></g></g><g transform="translate(-6,2) scale(1,1)"><path fill="none" stroke="#000000" d="M 343 247 L 343 264 L 304 264 L 304 280" stroke-miterlimit="10"/></g><g transform="translate(-6,2) scale(1,1)"><path fill="none" stroke="#000000" d="M 299.790482243984 269.83732514237585 L 304 280 L 308.209517756016 269.83732514237585" stroke-miterlimit="10"/></g><g transform="translate(-6,2) scale(1,1)"><g><path fill="none" stroke="none"/><text fill="#000000" stroke="none" font-family="Arial" font-size="13px" font-style="normal" font-weight="normal" text-decoration="none" x="351.5" y="266.5">is review approved ?</text></g></g><g transform="translate(-6,2) scale(1,1)"><path fill="#C0C0C0" stroke="none" d="M 425 311 L 562.12255859375 311 Q 572.12255859375 311 572.12255859375 321 L 572.12255859375 340 Q 572.12255859375 350 562.12255859375 350 L 425 350 Q 415 350 415 340 L 415 321 Q 415 311 425 311 Z" opacity="0.2"/></g><g transform="translate(-6,2) scale(1,1)"><path fill="#ffffff" stroke="none" d="M 418 304 L 555.12255859375 304 Q 565.12255859375 304 565.12255859375 314 L 565.12255859375 333 Q 565.12255859375 343 555.12255859375 343 L 418 343 Q 408 343 408 333 L 408 314 Q 408 304 418 304 Z"/></g><g transform="translate(-6,2) scale(1,1)"><path fill="none" stroke="#000000" d="M 418 304 L 555.12255859375 304 Q 565.12255859375 304 565.12255859375 314 L 565.12255859375 333 Q 565.12255859375 343 555.12255859375 343 L 418 343 Q 408 343 408 333 L 408 314 Q 408 304 418 304 Z" stroke-miterlimit="10"/></g><g transform="translate(-6,2) scale(1,1)"><g><path fill="none" stroke="none"/><text fill="#000000" stroke="none" font-family="Arial" font-size="13px" font-style="normal" font-weight="bold" text-decoration="none" x="412.5" y="321.5">send_feedback_to_user</text></g></g><g transform="translate(-6,2) scale(1,1)"><path fill="none" stroke="#000000" d="M 318 288 L 488 288 L 488 304" stroke-miterlimit="10"/></g><g transform="translate(-6,2) scale(1,1)"><path fill="none" stroke="#000000" d="M 483.790482243984 293.83732514237585 L 488 304 L 492.209517756016 293.83732514237585" stroke-miterlimit="10"/></g><g transform="translate(-6,2) scale(1,1)"><g><path fill="none" stroke="none"/><text fill="#000000" stroke="none" font-family="Arial" font-size="13px" font-style="normal" font-weight="normal" text-decoration="none" x="349.5" y="305.5">Declined</text></g></g><g transform="translate(-6,2) scale(1,1)"><path fill="none" stroke="#000000" d="M 351 375 L 351 400 L 432 400" stroke-miterlimit="10"/></g><g transform="translate(-6,2) scale(1,1)"><path fill="none" stroke="#000000" d="M 421.83732514237585 404.209517756016 L 432 400 L 421.83732514237585 395.790482243984" stroke-miterlimit="10"/></g><g transform="translate(-6,2) scale(1,1)"><path fill="none" stroke="#000000" d="M 475 343 L 475 404 L 457 404" stroke-miterlimit="10"/></g><g transform="translate(-6,2) scale(1,1)"><path fill="none" stroke="#000000" d="M 467.16267485762415 399.790482243984 L 457 404 L 467.16267485762415 408.209517756016" stroke-miterlimit="10"/></g></g></svg>