<svg version="1.1" xmlns="http://www.w3.org/2000/svg" xmlns:xlink="http://www.w3.org/1999/xlink" width="695" height="501"><defs/><g><text fill="#eeeeee" stroke="none" font-family="Arial" font-size="24px" font-style="normal" font-weight="normal" text-decoration="none" x="0" y="0">UNREGISTERED</text><text fill="#eeeeee" stroke="none" font-family="Arial" font-size="24px" font-style="normal" font-weight="normal" text-decoration="none" x="0" y="30">UNREGISTERED</text><text fill="#eeeeee" stroke="none" font-family="Arial" font-size="24px" font-style="normal" font-weight="normal" text-decoration="none" x="0" y="60">UNREGISTERED</text><text fill="#eeeeee" stroke="none" font-family="Arial" font-size="24px" font-style="normal" font-weight="normal" text-decoration="none" x="0" y="90">UNREGISTERED</text><text fill="#eeeeee" stroke="none" font-family="Arial" font-size="24px" font-style="normal" font-weight="normal" text-decoration="none" x="0" y="120">UNREGISTERED</text><text fill="#eeeeee" stroke="none" font-family="Arial" font-size="24px" font-style="normal" font-weight="normal" text-decoration="none" x="0" y="150">UNREGISTERED</text><text fill="#eeeeee" stroke="none" font-family="Arial" font-size="24px" font-style="normal" font-weight="normal" text-decoration="none" x="0" y="180">UNREGISTERED</text><text fill="#eeeeee" stroke="none" font-family="Arial" font-size="24px" font-style="normal" font-weight="normal" text-decoration="none" x="0" y="210">UNREGISTERED</text><text fill="#eeeeee" stroke="none" font-family="Arial" font-size="24px" font-style="normal" font-weight="normal" text-decoration="none" x="0" y="240">UNREGISTERED</text><text fill="#eeeeee" stroke="none" font-family="Arial" font-size="24px" font-style="normal" font-weight="normal" text-decoration="none" x="0" y="270">UNREGISTERED</text><text fill="#eeeeee" stroke="none" font-family="Arial" font-size="24px" font-style="normal" font-weight="normal" text-decoration="none" x="0" y="300">UNREGISTERED</text><text fill="#eeeeee" stroke="none" font-family="Arial" font-size="24px" font-style="normal" font-weight="normal" text-decoration="none" x="0" y="330">UNREGISTERED</text><text fill="#eeeeee" stroke="none" font-family="Arial" font-size="24px" font-style="normal" font-weight="normal" text-decoration="none" x="0" y="360">UNREGISTERED</text><text fill="#eeeeee" stroke="none" font-family="Arial" font-size="24px" font-style="normal" font-weight="normal" text-decoration="none" x="0" y="390">UNREGISTERED</text><text fill="#eeeeee" stroke="none" font-family="Arial" font-size="24px" font-style="normal" font-weight="normal" text-decoration="none" x="0" y="420">UNREGISTERED</text><text fill="#eeeeee" stroke="none" font-family="Arial" font-size="24px" font-style="normal" font-weight="normal" text-decoration="none" x="0" y="450">UNREGISTERED</text><text fill="#eeeeee" stroke="none" font-family="Arial" font-size="24px" font-style="normal" font-weight="normal" text-decoration="none" x="0" y="480">UNREGISTERED</text><text fill="#eeeeee" stroke="none" font-family="Arial" font-size="24px" font-style="normal" font-weight="normal" text-decoration="none" x="200" y="0">UNREGISTERED</text><text fill="#eeeeee" stroke="none" font-family="Arial" font-size="24px" font-style="normal" font-weight="normal" text-decoration="none" x="200" y="30">UNREGISTERED</text><text fill="#eeeeee" stroke="none" font-family="Arial" font-size="24px" font-style="normal" font-weight="normal" text-decoration="none" x="200" y="60">UNREGISTERED</text><text fill="#eeeeee" stroke="none" font-family="Arial" font-size="24px" font-style="normal" font-weight="normal" text-decoration="none" x="200" y="90">UNREGISTERED</text><text fill="#eeeeee" stroke="none" font-family="Arial" font-size="24px" font-style="normal" font-weight="normal" text-decoration="none" x="200" y="120">UNREGISTERED</text><text fill="#eeeeee" stroke="none" font-family="Arial" font-size="24px" font-style="normal" font-weight="normal" text-decoration="none" x="200" y="150">UNREGISTERED</text><text fill="#eeeeee" stroke="none" font-family="Arial" font-size="24px" font-style="normal" font-weight="normal" text-decoration="none" x="200" y="180">UNREGISTERED</text><text fill="#eeeeee" stroke="none" font-family="Arial" font-size="24px" font-style="normal" font-weight="normal" text-decoration="none" x="200" y="210">UNREGISTERED</text><text fill="#eeeeee" stroke="none" font-family="Arial" font-size="24px" font-style="normal" font-weight="normal" text-decoration="none" x="200" y="240">UNREGISTERED</text><text fill="#eeeeee" stroke="none" font-family="Arial" font-size="24px" font-style="normal" font-weight="normal" text-decoration="none" x="200" y="270">UNREGISTERED</text><text fill="#eeeeee" stroke="none" font-family="Arial" font-size="24px" font-style="normal" font-weight="normal" text-decoration="none" x="200" y="300">UNREGISTERED</text><text fill="#eeeeee" stroke="none" font-family="Arial" font-size="24px" font-style="normal" font-weight="normal" text-decoration="none" x="200" y="330">UNREGISTERED</text><text fill="#eeeeee" stroke="none" font-family="Arial" font-size="24px" font-style="normal" font-weight="normal" text-decoration="none" x="200" y="360">UNREGISTERED</text><text fill="#eeeeee" stroke="none" font-family="Arial" font-size="24px" font-style="normal" font-weight="normal" text-decoration="none" x="200" y="390">UNREGISTERED</text><text fill="#eeeeee" stroke="none" font-family="Arial" font-size="24px" font-style="normal" font-weight="normal" text-decoration="none" x="200" y="420">UNREGISTERED</text><text fill="#eeeeee" stroke="none" font-family="Arial" font-size="24px" font-style="normal" font-weight="normal" text-decoration="none" x="200" y="450">UNREGISTERED</text><text fill="#eeeeee" stroke="none" font-family="Arial" font-size="24px" font-style="normal" font-weight="normal" text-decoration="none" x="200" y="480">UNREGISTERED</text><text fill="#eeeeee" stroke="none" font-family="Arial" font-size="24px" font-style="normal" font-weight="normal" text-decoration="none" x="400" y="0">UNREGISTERED</text><text fill="#eeeeee" stroke="none" font-family="Arial" font-size="24px" font-style="normal" font-weight="normal" text-decoration="none" x="400" y="30">UNREGISTERED</text><text fill="#eeeeee" stroke="none" font-family="Arial" font-size="24px" font-style="normal" font-weight="normal" text-decoration="none" x="400" y="60">UNREGISTERED</text><text fill="#eeeeee" stroke="none" font-family="Arial" font-size="24px" font-style="normal" font-weight="normal" text-decoration="none" x="400" y="90">UNREGISTERED</text><text fill="#eeeeee" stroke="none" font-family="Arial" font-size="24px" font-style="normal" font-weight="normal" text-decoration="none" x="400" y="120">UNREGISTERED</text><text fill="#eeeeee" stroke="none" font-family="Arial" font-size="24px" font-style="normal" font-weight="normal" text-decoration="none" x="400" y="150">UNREGISTERED</text><text fill="#eeeeee" stroke="none" font-family="Arial" font-size="24px" font-style="normal" font-weight="normal" text-decoration="none" x="400" y="180">UNREGISTERED</text><text fill="#eeeeee" stroke="none" font-family="Arial" font-size="24px" font-style="normal" font-weight="normal" text-decoration="none" x="400" y="210">UNREGISTERED</text><text fill="#eeeeee" stroke="none" font-family="Arial" font-size="24px" font-style="normal" font-weight="normal" text-decoration="none" x="400" y="240">UNREGISTERED</text><text fill="#eeeeee" stroke="none" font-family="Arial" font-size="24px" font-style="normal" font-weight="normal" text-decoration="none" x="400" y="270">UNREGISTERED</text><text fill="#eeeeee" stroke="none" font-family="Arial" font-size="24px" font-style="normal" font-weight="normal" text-decoration="none" x="400" y="300">UNREGISTERED</text><text fill="#eeeeee" stroke="none" font-family="Arial" font-size="24px" font-style="normal" font-weight="normal" text-decoration="none" x="400" y="330">UNREGISTERED</text><text fill="#eeeeee" stroke="none" font-family="Arial" font-size="24px" font-style="normal" font-weight="normal" text-decoration="none" x="400" y="360">UNREGISTERED</text><text fill="#eeeeee" stroke="none" font-family="Arial" font-size="24px" font-style="normal" font-weight="normal" text-decoration="none" x="400" y="390">UNREGISTERED</text><text fill="#eeeeee" stroke="none" font-family="Arial" font-size="24px" font-style="normal" font-weight="normal" text-decoration="none" x="400" y="420">UNREGISTERED</text><text fill="#eeeeee" stroke="none" font-family="Arial" font-size="24px" font-style="normal" font-weight="normal" text-decoration="none" x="400" y="450">UNREGISTERED</text><text fill="#eeeeee" stroke="none" font-family="Arial" font-size="24px" font-style="normal" font-weight="normal" text-decoration="none" x="400" y="480">UNREGISTERED</text><text fill="#eeeeee" stroke="none" font-family="Arial" font-size="24px" font-style="normal" font-weight="normal" text-decoration="none" x="600" y="0">UNREGISTERED</text><text fill="#eeeeee" stroke="none" font-family="Arial" font-size="24px" font-style="normal" font-weight="normal" text-decoration="none" x="600" y="30">UNREGISTERED</text><text fill="#eeeeee" stroke="none" font-family="Arial" font-size="24px" font-style="normal" font-weight="normal" text-decoration="none" x="600" y="60">UNREGISTERED</text><text fill="#eeeeee" stroke="none" font-family="Arial" font-size="24px" font-style="normal" font-weight="normal" text-decoration="none" x="600" y="90">UNREGISTERED</text><text fill="#eeeeee" stroke="none" font-family="Arial" font-size="24px" font-style="normal" font-weight="normal" text-decoration="none" x="600" y="120">UNREGISTERED</text><text fill="#eeeeee" stroke="none" font-family="Arial" font-size="24px" font-style="normal" font-weight="normal" text-decoration="none" x="600" y="150">UNREGISTERED</text><text fill="#eeeeee" stroke="none" font-family="Arial" font-size="24px" font-style="normal" font-weight="normal" text-decoration="none" x="600" y="180">UNREGISTERED</text><text fill="#eeeeee" stroke="none" font-family="Arial" font-size="24px" font-style="normal" font-weight="normal" text-decoration="none" x="600" y="210">UNREGISTERED</text><text fill="#eeeeee" stroke="none" font-family="Arial" font-size="24px" font-style="normal" font-weight="normal" text-decoration="none" x="600" y="240">UNREGISTERED</text><text fill="#eeeeee" stroke="none" font-family="Arial" font-size="24px" font-style="normal" font-weight="normal" text-decoration="none" x="600" y="270">UNREGISTERED</text><text fill="#eeeeee" stroke="none" font-family="Arial" font-size="24px" font-style="normal" font-weight="normal" text-decoration="none" x="600" y="300">UNREGISTERED</text><text fill="#eeeeee" stroke="none" font-family="Arial" font-size="24px" font-style="normal" font-weight="normal" text-decoration="none" x="600" y="330">UNREGISTERED</text><text fill="#eeeeee" stroke="none" font-family="Arial" font-size="24px" font-style="normal" font-weight="normal" text-decoration="none" x="600" y="360">UNREGISTERED</text><text fill="#eeeeee" stroke="none" font-family="Arial" font-size="24px" font-style="normal" font-weight="normal" text-decoration="none" x="600" y="390">UNREGISTERED</text><text fill="#eeeeee" stroke="none" font-family="Arial" font-size="24px" font-style="normal" font-weight="normal" text-decoration="none" x="600" y="420">UNREGISTERED</text><text fill="#eeeeee" stroke="none" font-family="Arial" font-size="24px" font-style="normal" font-weight="normal" text-decoration="none" x="600" y="450">UNREGISTERED</text><text fill="#eeeeee" stroke="none" font-family="Arial" font-size="24px" font-style="normal" font-weight="normal" text-decoration="none" x="600" y="480">UNREGISTERED</text><g transform="translate(11,-6) scale(1,1)"><path fill="#C0C0C0" stroke="none" d="M 65 58.5 C 65 53.2532944 69.2532944 49 74.5 49 C 79.7467056 49 84 53.2532944 84 58.5 C 84 63.7467056 79.7467056 68 74.5 68 C 69.2532944 68 65 63.7467056 65 58.5 Z" opacity="0.2"/></g><g transform="translate(11,-6) scale(1,1)"><path fill="#000000" stroke="none" d="M 58 51.5 C 58 46.2532944 62.2532944 42 67.5 42 C 72.7467056 42 77 46.2532944 77 51.5 C 77 56.7467056 72.7467056 61 67.5 61 C 62.2532944 61 58 56.7467056 58 51.5 Z"/></g><g transform="translate(11,-6) scale(1,1)"><path fill="#C0C0C0" stroke="none" d="M 656 366.5 C 656 359.59644 661.59644 354 668.5 354 C 675.40356 354 681 359.59644 681 366.5 C 681 373.40356 675.40356 379 668.5 379 C 661.59644 379 656 373.40356 656 366.5 Z" opacity="0.2"/></g><g transform="translate(11,-6) scale(1,1)"><path fill="none" stroke="#000000" d="M 649 359.5 C 649 352.59644 654.59644 347 661.5 347 C 668.40356 347 674 352.59644 674 359.5 C 674 366.40356 668.40356 372 661.5 372 C 654.59644 372 649 366.40356 649 359.5 Z" stroke-miterlimit="10"/></g><g transform="translate(11,-6) scale(1,1)"><path fill="#000000" stroke="none" d="M 654 359.5 C 654 355.357864 657.357864 352 661.5 352 C 665.642136 352 669 355.357864 669 359.5 C 669 363.642136 665.642136 367 661.5 367 C 657.357864 367 654 363.642136 654 359.5 Z"/></g><g transform="translate(11,-6) scale(1,1)"><path fill="#C0C0C0" stroke="none" d="M 209 39 L 293.37353515625 39 Q 303.37353515625 39 303.37353515625 49 L 303.37353515625 68 Q 303.37353515625 78 293.37353515625 78 L 209 78 Q 199 78 199 68 L 199 49 Q 199 39 209 39 Z" opacity="0.2"/></g><g transform="translate(11,-6) scale(1,1)"><path fill="#ffffff" stroke="none" d="M 202 32 L 286.37353515625 32 Q 296.37353515625 32 296.37353515625 42 L 296.37353515625 61 Q 296.37353515625 71 286.37353515625 71 L 202 71 Q 192 71 192 61 L 192 42 Q 192 32 202 32 Z"/></g><g transform="translate(11,-6) scale(1,1)"><path fill="none" stroke="#000000" d="M 202 32 L 286.37353515625 32 Q 296.37353515625 32 296.37353515625 42 L 296.37353515625 61 Q 296.37353515625 71 286.37353515625 71 L 202 71 Q 192 71 192 61 L 192 42 Q 192 32 202 32 Z" stroke-miterlimit="10"/></g><g transform="translate(11,-6) scale(1,1)"><g><path fill="none" stroke="none"/><text fill="#000000" stroke="none" font-family="Arial" font-size="13px" font-style="normal" font-weight="bold" text-decoration="none" x="196.5" y="49.5">choose_course</text></g></g><g transform="translate(11,-6) scale(1,1)"><path fill="none" stroke="#000000" d="M 77 51 L 192 51" stroke-miterlimit="10"/></g><g transform="translate(11,-6) scale(1,1)"><path fill="none" stroke="#000000" d="M 181.83732514237585 55.20951775601599 L 192 51 L 181.83732514237585 46.790482243984016" stroke-miterlimit="10"/></g><g transform="translate(11,-6) scale(1,1)"><g><path fill="none" stroke="none"/><text fill="#000000" stroke="none" font-family="Arial" font-size="13px" font-style="normal" font-weight="normal" text-decoration="none" x="46.5" y="26.5">Choose Course button is clicked</text></g></g><g transform="translate(11,-6) scale(1,1)"><path fill="#C0C0C0" stroke="none" d="M 343 88.5 L 354.5 79 L 365 88.5 L 354.5 97 L 343 88.5" opacity="0.2"/></g><g transform="translate(11,-6) scale(1,1)"><path fill="#ffffff" stroke="none" d="M 336 81 L 347 72 L 358 81 L 347 90 L 336 81"/></g><g transform="translate(11,-6) scale(1,1)"><path fill="none" stroke="#000000" d="M 336 81 L 347 72 L 358 81 L 347 90 L 336 81 L 336 81" stroke-miterlimit="10"/></g><g transform="translate(11,-6) scale(1,1)"><path fill="none" stroke="#000000" d="M 296 48 L 344 48 L 344 72" stroke-miterlimit="10"/></g><g transform="translate(11,-6) scale(1,1)"><path fill="none" stroke="#000000" d="M 339.790482243984 61.837325142375846 L 344 72 L 348.209517756016 61.837325142375846" stroke-miterlimit="10"/></g><g transform="translate(11,-6) scale(1,1)"><g><path fill="none" stroke="none"/><text fill="#000000" stroke="none" font-family="Arial" font-size="13px" font-style="normal" font-weight="normal" text-decoration="none" x="302.5" y="42.5">Course is chosen</text></g></g><g transform="translate(11,-6) scale(1,1)"><path fill="#C0C0C0" stroke="none" d="M 249 151 L 329.03173828125 151 Q 339.03173828125 151 339.03173828125 161 L 339.03173828125 180 Q 339.03173828125 190 329.03173828125 190 L 249 190 Q 239 190 239 180 L 239 161 Q 239 151 249 151 Z" opacity="0.2"/></g><g transform="translate(11,-6) scale(1,1)"><path fill="#ffffff" stroke="none" d="M 242 144 L 322.03173828125 144 Q 332.03173828125 144 332.03173828125 154 L 332.03173828125 173 Q 332.03173828125 183 322.03173828125 183 L 242 183 Q 232 183 232 173 L 232 154 Q 232 144 242 144 Z"/></g><g transform="translate(11,-6) scale(1,1)"><path fill="none" stroke="#000000" d="M 242 144 L 322.03173828125 144 Q 332.03173828125 144 332.03173828125 154 L 332.03173828125 173 Q 332.03173828125 183 322.03173828125 183 L 242 183 Q 232 183 232 173 L 232 154 Q 232 144 242 144 Z" stroke-miterlimit="10"/></g><g transform="translate(11,-6) scale(1,1)"><g><path fill="none" stroke="none"/><text fill="#000000" stroke="none" font-family="Arial" font-size="13px" font-style="normal" font-weight="bold" text-decoration="none" x="236.5" y="161.5">sent_to_coach</text></g></g><g transform="translate(11,-6) scale(1,1)"><path fill="none" stroke="#000000" d="M 352 90 L 352 112 L 280 112 L 280 144" stroke-miterlimit="10"/></g><g transform="translate(11,-6) scale(1,1)"><path fill="none" stroke="#000000" d="M 275.790482243984 133.83732514237585 L 280 144 L 284.209517756016 133.83732514237585" stroke-miterlimit="10"/></g><g transform="translate(11,-6) scale(1,1)"><g><path fill="none" stroke="none"/><text fill="#000000" stroke="none" font-family="Arial" font-size="13px" font-style="normal" font-weight="normal" text-decoration="none" x="198.53271484375" y="97.5">users plan sent to server</text></g></g><g transform="translate(11,-6) scale(1,1)"><path fill="#C0C0C0" stroke="none" d="M 279 240.5 L 290.5 231 L 301 240.5 L 290.5 249 L 279 240.5" opacity="0.2"/></g><g transform="translate(11,-6) scale(1,1)"><path fill="#ffffff" stroke="none" d="M 272 233 L 283 224 L 294 233 L 283 242 L 272 233"/></g><g transform="translate(11,-6) scale(1,1)"><path fill="none" stroke="#000000" d="M 272 233 L 283 224 L 294 233 L 283 242 L 272 233 L 272 233" stroke-miterlimit="10"/></g><g transform="translate(11,-6) scale(1,1)"><path fill="none" stroke="#000000" d="M 282 183 L 282 224" stroke-miterlimit="10"/></g><g transform="translate(11,-6) scale(1,1)"><path fill="none" stroke="#000000" d="M 277.790482243984 213.83732514237585 L 282 224 L 286.209517756016 213.83732514237585" stroke-miterlimit="10"/></g><g transform="translate(11,-6) scale(1,1)"><g><path fill="none" stroke="none"/><text fill="#000000" stroke="none" font-family="Arial" font-size="13px" font-style="normal" font-weight="normal" text-decoration="none" x="-1.5" y="199.5">Coach makes the final decision about the course</text></g></g><g transform="translate(11,-6) scale(1,1)"><path fill="#C0C0C0" stroke="none" d="M 153 263 L 257.603515625 263 Q 267.603515625 263 267.603515625 273 L 267.603515625 292 Q 267.603515625 302 257.603515625 302 L 153 302 Q 143 302 143 292 L 143 273 Q 143 263 153 263 Z" opacity="0.2"/></g><g transform="translate(11,-6) scale(1,1)"><path fill="#ffffff" stroke="none" d="M 146 256 L 250.603515625 256 Q 260.603515625 256 260.603515625 266 L 260.603515625 285 Q 260.603515625 295 250.603515625 295 L 146 295 Q 136 295 136 285 L 136 266 Q 136 256 146 256 Z"/></g><g transform="translate(11,-6) scale(1,1)"><path fill="none" stroke="#000000" d="M 146 256 L 250.603515625 256 Q 260.603515625 256 260.603515625 266 L 260.603515625 285 Q 260.603515625 295 250.603515625 295 L 146 295 Q 136 295 136 285 L 136 266 Q 136 256 146 256 Z" stroke-miterlimit="10"/></g><g transform="translate(11,-6) scale(1,1)"><g><path fill="none" stroke="none"/><text fill="#000000" stroke="none" font-family="Arial" font-size="13px" font-style="normal" font-weight="bold" text-decoration="none" x="140.5" y="273.5">courses_approved</text></g></g><g transform="translate(11,-6) scale(1,1)"><path fill="#C0C0C0" stroke="none" d="M 377 279 L 475.8271484375 279 Q 485.8271484375 279 485.8271484375 289 L 485.8271484375 308 Q 485.8271484375 318 475.8271484375 318 L 377 318 Q 367 318 367 308 L 367 289 Q 367 279 377 279 Z" opacity="0.2"/></g><g transform="translate(11,-6) scale(1,1)"><path fill="#ffffff" stroke="none" d="M 370 272 L 468.8271484375 272 Q 478.8271484375 272 478.8271484375 282 L 478.8271484375 301 Q 478.8271484375 311 468.8271484375 311 L 370 311 Q 360 311 360 301 L 360 282 Q 360 272 370 272 Z"/></g><g transform="translate(11,-6) scale(1,1)"><path fill="none" stroke="#000000" d="M 370 272 L 468.8271484375 272 Q 478.8271484375 272 478.8271484375 282 L 478.8271484375 301 Q 478.8271484375 311 468.8271484375 311 L 370 311 Q 360 311 360 301 L 360 282 Q 360 272 370 272 Z" stroke-miterlimit="10"/></g><g transform="translate(11,-6) scale(1,1)"><g><path fill="none" stroke="none"/><text fill="#000000" stroke="none" font-family="Arial" font-size="13px" font-style="normal" font-weight="bold" text-decoration="none" x="364.5" y="289.5">courses_declined</text></g></g><g transform="translate(11,-6) scale(1,1)"><path fill="none" stroke="#000000" d="M 272 232 L 198 232 L 198 256" stroke-miterlimit="10"/></g><g transform="translate(11,-6) scale(1,1)"><path fill="none" stroke="#000000" d="M 193.790482243984 245.83732514237585 L 198 256 L 202.209517756016 245.83732514237585" stroke-miterlimit="10"/></g><g transform="translate(11,-6) scale(1,1)"><g><path fill="none" stroke="none"/><text fill="#000000" stroke="none" font-family="Arial" font-size="13px" font-style="normal" font-weight="normal" text-decoration="none" x="188.5" y="226.5">Approved</text></g></g><g transform="translate(11,-6) scale(1,1)"><path fill="none" stroke="#000000" d="M 294 232 L 424 232 L 424 272" stroke-miterlimit="10"/></g><g transform="translate(11,-6) scale(1,1)"><path fill="none" stroke="#000000" d="M 419.790482243984 261.83732514237585 L 424 272 L 428.209517756016 261.83732514237585" stroke-miterlimit="10"/></g><g transform="translate(11,-6) scale(1,1)"><g><path fill="none" stroke="none"/><text fill="#000000" stroke="none" font-family="Arial" font-size="13px" font-style="normal" font-weight="normal" text-decoration="none" x="326.5" y="225.5">Declined</text></g></g><g transform="translate(11,-6) scale(1,1)"><path fill="#C0C0C0" stroke="none" d="M 145 359 L 274.87353515625 359 Q 284.87353515625 359 284.87353515625 369 L 284.87353515625 388 Q 284.87353515625 398 274.87353515625 398 L 145 398 Q 135 398 135 388 L 135 369 Q 135 359 145 359 Z" opacity="0.2"/></g><g transform="translate(11,-6) scale(1,1)"><path fill="#ffffff" stroke="none" d="M 138 352 L 267.87353515625 352 Q 277.87353515625 352 277.87353515625 362 L 277.87353515625 381 Q 277.87353515625 391 267.87353515625 391 L 138 391 Q 128 391 128 381 L 128 362 Q 128 352 138 352 Z"/></g><g transform="translate(11,-6) scale(1,1)"><path fill="none" stroke="#000000" d="M 138 352 L 267.87353515625 352 Q 277.87353515625 352 277.87353515625 362 L 277.87353515625 381 Q 277.87353515625 391 267.87353515625 391 L 138 391 Q 128 391 128 381 L 128 362 Q 128 352 138 352 Z" stroke-miterlimit="10"/></g><g transform="translate(11,-6) scale(1,1)"><g><path fill="none" stroke="none"/><text fill="#000000" stroke="none" font-family="Arial" font-size="13px" font-style="normal" font-weight="bold" text-decoration="none" x="132.5" y="369.5">transaction_procedure</text></g></g><g transform="translate(11,-6) scale(1,1)"><path fill="none" stroke="#000000" d="M 199 295 L 199 352" stroke-miterlimit="10"/></g><g transform="translate(11,-6) scale(1,1)"><path fill="none" stroke="#000000" d="M 194.790482243984 341.83732514237585 L 199 352 L 203.209517756016 341.83732514237585" stroke-miterlimit="10"/></g><g transform="translate(11,-6) scale(1,1)"><g><path fill="none" stroke="none"/><text fill="#000000" stroke="none" font-family="Arial" font-size="13px" font-style="normal" font-weight="normal" text-decoration="none" x="141.5" y="329.5">Redirect</text></g></g><g transform="translate(11,-6) scale(1,1)"><path fill="#C0C0C0" stroke="none" d="M 239 491.5 C 239 484.59644 244.59644 479 251.5 479 C 258.40356 479 264 484.59644 264 491.5 C 264 498.40356 258.40356 504 251.5 504 C 244.59644 504 239 498.40356 239 491.5 Z" opacity="0.2"/></g><g transform="translate(11,-6) scale(1,1)"><path fill="none" stroke="#000000" d="M 232 484.5 C 232 477.59644 237.59644 472 244.5 472 C 251.40356 472 257 477.59644 257 484.5 C 257 491.40356 251.40356 497 244.5 497 C 237.59644 497 232 491.40356 232 484.5 Z" stroke-miterlimit="10"/></g><g transform="translate(11,-6) scale(1,1)"><path fill="#000000" stroke="none" d="M 237 484.5 C 237 480.357864 240.357864 477 244.5 477 C 248.642136 477 252 480.357864 252 484.5 C 252 488.642136 248.642136 492 244.5 492 C 240.357864 492 237 488.642136 237 484.5 Z"/></g><g transform="translate(11,-6) scale(1,1)"><path fill="none" stroke="#000000" d="M 208 391 L 208 456 L 240 456 L 240 472" stroke-miterlimit="10"/></g><g transform="translate(11,-6) scale(1,1)"><path fill="none" stroke="#000000" d="M 235.790482243984 461.83732514237585 L 240 472 L 244.209517756016 461.83732514237585" stroke-miterlimit="10"/></g><g transform="translate(11,-6) scale(1,1)"><path fill="#C0C0C0" stroke="none" d="M 417 407 L 490.53173828125 407 Q 500.53173828125 407 500.53173828125 417 L 500.53173828125 436 Q 500.53173828125 446 490.53173828125 446 L 417 446 Q 407 446 407 436 L 407 417 Q 407 407 417 407 Z" opacity="0.2"/></g><g transform="translate(11,-6) scale(1,1)"><path fill="#ffffff" stroke="none" d="M 410 400 L 483.53173828125 400 Q 493.53173828125 400 493.53173828125 410 L 493.53173828125 429 Q 493.53173828125 439 483.53173828125 439 L 410 439 Q 400 439 400 429 L 400 410 Q 400 400 410 400 Z"/></g><g transform="translate(11,-6) scale(1,1)"><path fill="none" stroke="#000000" d="M 410 400 L 483.53173828125 400 Q 493.53173828125 400 493.53173828125 410 L 493.53173828125 429 Q 493.53173828125 439 483.53173828125 439 L 410 439 Q 400 439 400 429 L 400 410 Q 400 400 410 400 Z" stroke-miterlimit="10"/></g><g transform="translate(11,-6) scale(1,1)"><g><path fill="none" stroke="none"/><text fill="#000000" stroke="none" font-family="Arial" font-size="13px" font-style="normal" font-weight="bold" text-decoration="none" x="404.5" y="417.5">send_to_user</text></g></g><g transform="translate(11,-6) scale(1,1)"><path fill="none" stroke="#000000" d="M 423 311 L 423 400" stroke-miterlimit="10"/></g><g transform="translate(11,-6) scale(1,1)"><path fill="none" stroke="#000000" d="M 418.790482243984 389.83732514237585 L 423 400 L 427.209517756016 389.83732514237585" stroke-miterlimit="10"/></g><g transform="translate(11,-6) scale(1,1)"><g><path fill="none" stroke="none"/><text fill="#000000" stroke="none" font-family="Arial" font-size="13px" font-style="normal" font-weight="normal" text-decoration="none" x="279.5" y="337.5">Return response to user</text></g></g><g transform="translate(11,-6) scale(1,1)"><path fill="none" stroke="#000000" d="M 446 439 L 446 479 L 257 479" stroke-miterlimit="10"/></g><g transform="translate(11,-6) scale(1,1)"><path fill="none" stroke="#000000" d="M 267.16267485762415 474.790482243984 L 257 479 L 267.16267485762415 483.209517756016" stroke-miterlimit="10"/></g></g></svg>